<?xml version="1.0" encoding="UTF-8"?>
<svg version="1.1" xmlns="http://www.w3.org/2000/svg" width="1847" height="852">
<path d="M0 0 C609.51 0 1219.02 0 1847 0 C1847 281.16 1847 562.32 1847 852 C1237.49 852 627.98 852 0 852 C0 570.84 0 289.68 0 0 Z " fill="#FCFCFD" transform="translate(0,0)"/>
<path d="M0 0 C167.97 0 335.94 0 509 0 C506.9540385 4.091923 505.64299015 5.334783 502.125 8.0625 C497.92608866 11.40079896 493.91952831 14.83934464 490 18.5 C485.36842818 22.81089004 480.57869144 26.85068111 475.6484375 30.8203125 C472.1637088 33.68827506 468.84960089 36.72520674 465.515625 39.765625 C462.98669705 42.01181566 460.38950086 44.13531218 457.75 46.25 C453.32067807 49.82849172 449.14295082 53.59995835 445 57.5 C440.02050944 62.18753346 434.91820053 66.61231888 429.578125 70.890625 C426.9757371 73.01985146 424.48424498 75.23449357 422 77.5 C418.60401318 80.59555196 415.13828469 83.55151207 411.5625 86.4375 C406.788597 90.29825137 402.26611572 94.37437075 397.75 98.53125 C394.18815771 101.72881296 390.47434167 104.71388343 386.75 107.71875 C383.91900422 110.06718968 381.20616402 112.50909902 378.5 115 C374.05272888 119.09351091 369.45282537 122.92442499 364.75 126.71875 C360.96094593 129.86194258 357.36730648 133.20158595 353.74609375 136.53515625 C351.08124834 138.92707297 348.35168175 141.19254884 345.5625 143.4375 C341.0260327 147.09635769 336.741339 150.94868963 332.47851562 154.91601562 C329.26718772 157.8870119 325.97381211 160.69953832 322.5625 163.4375 C317.78378372 167.28110057 313.30842313 171.36960164 308.83618164 175.55834961 C304.64670474 179.4599667 300.27827064 183.07324797 295.8125 186.65625 C292.02276887 189.81435928 288.44469795 193.17679182 284.84692383 196.54980469 C280.56233929 200.54288183 276.08221289 204.23146369 271.51171875 207.89453125 C268.35773297 210.53838559 265.49443968 213.39460245 262.65625 216.37109375 C261 218 261 218 258 220 C258.47644713 224.3285729 261.03871212 226.37189748 264.0625 229.3125 C264.56346191 229.80250488 265.06442383 230.29250977 265.58056641 230.79736328 C268.87395242 233.99372991 272.28168958 237.01773557 275.7734375 239.9921875 C279.39877906 243.26135516 282.78638142 246.76689741 286.21777344 250.23730469 C289.68002915 253.72370163 293.22820211 257.01632331 296.9765625 260.1953125 C300.51159004 263.3481749 303.78582037 266.76861123 307.09375 270.15625 C309.90607512 272.97256848 312.89986576 275.55645492 315.90722656 278.16113281 C319.39654231 281.22710647 322.75537319 284.4287606 326.125 287.625 C327.61556443 289.03289199 329.10645487 290.44043892 330.59765625 291.84765625 C331.33516113 292.54391113 332.07266602 293.24016602 332.83251953 293.95751953 C336.0653109 297.00387373 339.31042587 300.03675083 342.5625 303.0625 C343.36421631 303.81104248 343.36421631 303.81104248 344.18212891 304.57470703 C347.04610494 307.23582922 349.95053725 309.83883823 352.90234375 312.40234375 C357.72559863 316.60302001 362.35729184 320.9966534 367 325.39453125 C370.96933725 329.13904276 375.00443396 332.78400077 379.125 336.36132812 C381.7945542 338.69440726 384.3958794 341.09401901 387 343.5 C390.29952777 346.53968996 393.60951607 349.56158059 397 352.5 C402.9780522 357.68756596 408.76047708 363.09545173 414.58203125 368.45703125 C420.0088752 373.45295956 425.44392454 378.43067832 431.015625 383.265625 C435.05376124 386.79501966 439.0185482 390.40698252 443 394 C444.2065625 395.0828125 444.2065625 395.0828125 445.4375 396.1875 C452.52069211 402.54421087 459.53317198 408.97661557 466.54101562 415.41601562 C479.70609649 427.54782129 479.70609649 427.54782129 493.2109375 439.296875 C495.34926014 441.33248345 497.1557075 443.69463438 499 446 C334 446 169 446 -1 446 C-1.020625 401.73875 -1.04125 357.4775 -1.0625 311.875 C-1.07615601 291.47921143 -1.07615601 291.47921143 -1.09008789 270.67138672 C-1.11003184 180.43850746 -0.57111413 90.23603297 0 0 Z " fill="#0102DF" transform="translate(1249,79)"/>
<path d="M0 0 C3.54033365 1.41613346 6.38500955 2.70273983 9.59765625 4.6171875 C10.4705127 5.13506836 11.34336914 5.65294922 12.24267578 6.18652344 C13.17321777 6.7437207 14.10375977 7.30091797 15.0625 7.875 C16.04202637 8.45797852 17.02155273 9.04095703 18.03076172 9.64160156 C21.02277155 11.42397285 24.01164428 13.21151057 27 15 C28.63667367 15.97663806 30.27338951 16.95320543 31.91015625 17.9296875 C39.07507522 22.21169808 46.22178529 26.52300008 53.3515625 30.86328125 C55.6510094 32.26307389 57.95048181 33.66282449 60.25 35.0625 C60.8323642 35.41707275 61.41472839 35.77164551 62.01473999 36.13696289 C71.78033076 42.07962032 81.59857917 47.92971542 91.4375 53.75 C101.27471145 59.56960195 111.06172004 65.45365218 120.76000977 71.50317383 C126.43133604 75.03906696 132.13817834 78.50893193 137.875 81.9375 C145.89376276 86.72985291 153.88310061 91.56834507 161.85961914 96.43066406 C169.06614637 100.82355673 176.27876171 105.20628219 183.49435425 109.58425903 C198.15549705 118.48056085 212.80548642 127.39173938 227.375 136.4375 C235.14831208 141.26352047 242.97148124 145.99844511 250.82714844 150.68896484 C256.61876063 154.15361047 262.35811478 157.69259593 268.0703125 161.28637695 C272.95848766 164.35924157 277.87922963 167.37515358 282.8125 170.375 C289.04197535 174.16493242 295.22179976 178.02506054 301.375 181.9375 C307.79618755 186.0184513 314.27286574 189.98688198 320.8125 193.875 C328.87640801 198.67346271 336.8095692 203.65367457 344.71142578 208.71386719 C351.00321463 212.73999162 357.32923535 216.70475634 363.6875 220.625 C371.03106871 225.15401028 378.34408524 229.72725669 385.63232422 234.34472656 C392.00893293 238.38188654 398.40861768 242.38127448 404.8125 246.375 C414.50176279 252.42074776 424.14775274 258.53165583 433.77734375 264.671875 C446.83783155 272.99946678 459.9576108 281.23122497 473.09716797 289.43334961 C480.00476246 293.74715064 486.89596184 298.08595184 493.77734375 302.44140625 C500.1703984 306.4842317 506.58348096 310.49454273 513 314.5 C528.5628491 324.21866035 544.06514336 334.02645371 559.51342773 343.92626953 C566.49974293 348.40293752 573.49622053 352.86321386 580.5 357.3125 C587.53707429 361.7842278 594.55335696 366.28571565 601.54467773 370.82861328 C606.27677631 373.89877435 611.03465523 376.92596233 615.80224609 379.94067383 C625.05937785 385.79904794 634.24818296 391.75353203 643.375 397.8125 C644.43404541 398.51270264 645.49309082 399.21290527 646.58422852 399.93432617 C648.03913696 400.90462769 648.03913696 400.90462769 649.5234375 401.89453125 C650.38888184 402.47050049 651.25432617 403.04646973 652.14599609 403.63989258 C652.75781738 404.08872803 653.36963867 404.53756348 654 405 C654 405.33 654 405.66 654 406 C438.18 406 222.36 406 0 406 C0 272.02 0 138.04 0 0 Z " fill="#F90201" transform="translate(62,119)"/>
<path d="M0 0 C193.38 0 386.76 0 586 0 C586 120.12 586 240.24 586 364 C580.02567085 361.01283543 574.47611789 358.20881158 568.9375 354.625 C562.06811092 350.25813891 555.11445302 346.04668422 548.125 341.875 C536.10788731 334.69150995 524.17766382 327.3729858 512.26611328 320.01611328 C506.84774246 316.67144993 501.42357989 313.33620721 496 310 C493.83982141 308.67060922 491.67966518 307.34118211 489.51953125 306.01171875 C485.12156305 303.30522591 480.7230692 300.59958992 476.32421875 297.89453125 C465.53035422 291.25605119 454.74240509 284.60842892 443.97143555 277.93286133 C436.98966876 273.60771428 429.99592515 269.30220045 423 265 C392.69854427 246.36046433 392.69854427 246.36046433 379.625 238.0625 C372.63285019 233.62504692 365.58235462 229.29189164 358.5 225 C348.97475953 219.22753484 339.53954965 213.32619834 330.13769531 207.35546875 C318.79365697 200.16244672 307.35097057 193.12875276 295.90795898 186.09472656 C289.09792368 181.90831391 282.29451169 177.71155589 275.5 173.5 C259.32900353 163.48069085 243.13421889 153.50058857 226.875 143.625 C217.8710359 138.15416014 208.92029847 132.60587564 200 127 C188.20897617 119.59628319 176.4059458 112.21786451 164.5 105 C153.61368461 98.39915925 142.81379107 91.66551464 132.02929688 84.89990234 C126.95983229 81.72045574 121.88640008 78.54736197 116.8125 75.375 C115.81629639 74.75189941 114.82009277 74.12879883 113.79370117 73.48681641 C107.33371597 69.44925961 100.85814699 65.43772666 94.375 61.4375 C86.27757502 56.43927851 78.24193994 51.34943969 70.22338867 46.22583008 C64.07732405 42.3047374 57.89597669 38.44637256 51.6875 34.625 C42.72562604 29.10626933 33.85122557 23.45755783 25.00097656 17.76171875 C20.31043099 14.74563167 15.61495195 11.74477529 10.859375 8.83203125 C10.10245361 8.36756592 9.34553223 7.90310059 8.56567383 7.42456055 C7.18656841 6.58241553 5.80379023 5.74624414 4.41674805 4.91723633 C2.91106167 3.99744722 1.44919615 3.00644621 0 2 C0 1.34 0 0.68 0 0 Z " fill="#F90201" transform="translate(284,80)"/>
<path d="M0 0 C1.18916016 -0.01160156 2.37832031 -0.02320313 3.60351562 -0.03515625 C11.18628503 -0.01017184 17.75446724 0.96109694 24.9375 3.375 C26.09121094 3.75140625 27.24492188 4.1278125 28.43359375 4.515625 C41.8493034 9.57546768 51.79684714 16.48564612 61.9375 26.375 C62.59492187 26.95894531 63.25234375 27.54289062 63.9296875 28.14453125 C77.96933943 40.92255548 86.5191063 62.50492292 87.44140625 81.15234375 C87.93462898 107.12394048 82.74071707 129.06081946 64.8125 148.5 C62.88745083 150.49716308 60.92314259 152.43650255 58.9375 154.375 C58.26203125 155.05949219 57.5865625 155.74398437 56.890625 156.44921875 C40.94307973 171.61301714 17.55812424 178.16232386 -3.9921875 177.65625 C-29.10825153 176.19813308 -49.4396429 165.39765197 -66.34765625 146.87109375 C-73.91348 137.78918972 -78.99173482 128.25357316 -82.9375 117.1875 C-83.23599854 116.35621582 -83.53449707 115.52493164 -83.84204102 114.66845703 C-91.15715091 93.17299275 -88.17653837 68.2554584 -78.4375 48.0625 C-67.45387581 26.76156681 -48.85524624 10.97531208 -26.0625 3.375 C-17.30309028 0.62258097 -9.15185339 -0.08957768 0 0 Z " fill="#F7F7FC" transform="translate(1694.0625,223.625)"/>
<path d="M0 0 C1.18916016 -0.01160156 2.37832031 -0.02320313 3.60351562 -0.03515625 C11.18628503 -0.01017184 17.75446724 0.96109694 24.9375 3.375 C26.09121094 3.75140625 27.24492188 4.1278125 28.43359375 4.515625 C41.8493034 9.57546768 51.79684714 16.48564612 61.9375 26.375 C62.59492187 26.95894531 63.25234375 27.54289062 63.9296875 28.14453125 C77.96933943 40.92255548 86.5191063 62.50492292 87.44140625 81.15234375 C87.93462898 107.12394048 82.74071707 129.06081946 64.8125 148.5 C62.88745083 150.49716308 60.92314259 152.43650255 58.9375 154.375 C58.26203125 155.05949219 57.5865625 155.74398437 56.890625 156.44921875 C40.94307973 171.61301714 17.55812424 178.16232386 -3.9921875 177.65625 C-29.10825153 176.19813308 -49.4396429 165.39765197 -66.34765625 146.87109375 C-73.91348 137.78918972 -78.99173482 128.25357316 -82.9375 117.1875 C-83.23599854 116.35621582 -83.53449707 115.52493164 -83.84204102 114.66845703 C-91.15715091 93.17299275 -88.17653837 68.2554584 -78.4375 48.0625 C-67.45387581 26.76156681 -48.85524624 10.97531208 -26.0625 3.375 C-17.30309028 0.62258097 -9.15185339 -0.08957768 0 0 Z M-48.0625 45.375 C-55.68805191 54.62658871 -60.40717712 64.73243045 -63.0625 76.375 C-63.289375 77.344375 -63.51625 78.31375 -63.75 79.3125 C-65.70506347 98.47212203 -60.74865547 115.72475323 -49.0625 130.9375 C-39.02944666 142.59067673 -26.34549545 150.67376689 -11.0625 153.375 C0.96767871 154.26936829 12.73675422 154.23627606 23.9375 149.375 C24.93652344 148.97410156 25.93554688 148.57320313 26.96484375 148.16015625 C43.61224829 140.76845153 54.25046641 126.41624184 60.9453125 109.88671875 C66.74353793 93.58976476 65.0734364 76.03011857 58.09277344 60.49511719 C50.09417414 43.74500504 36.65317691 33.23501944 19.6640625 26.3203125 C-4.4568338 17.95748026 -31.32221823 27.33933928 -48.0625 45.375 Z " fill="#0505DE" transform="translate(1694.0625,223.625)"/>
<path d="M0 0 C8.01181193 6.37674827 10.24429056 14.32610473 11.39794922 24.35302734 C13.11056512 53.2887899 5.05001044 81.20635455 -13.3125 103.75 C-19.68806084 110.71964719 -28.944279 117.50365562 -38.51171875 118.78125 C-44.54424906 118.99766364 -48.92289936 118.17063916 -53.52734375 113.99609375 C-62.79274534 104.23230871 -62.29570668 90.71256301 -62.15234375 78.09765625 C-61.48287841 53.08626469 -49.33998599 25.94864931 -32.34375 7.671875 C-24.0388041 -0.03986048 -11.0542489 -5.69756441 0 0 Z " fill="#0506F9" transform="translate(1077.9375,595.5625)"/>
<path d="M0 0 C6.18590136 5.5967679 8.55691329 13.36662379 9.19970703 21.5390625 C9.66324078 32.43113596 9.39602815 43.33704752 7 54 C6.84934082 54.70157227 6.69868164 55.40314453 6.54345703 56.12597656 C1.99723822 76.8700105 -7.21924738 96.26811087 -24 110 C-31.82934211 114.70334105 -38.80524991 117.8373226 -48 117 C-53.43167835 115.18944055 -56.99278211 111.78663676 -60 107 C-61.30023529 103.7242134 -62.20167927 100.42875882 -63 97 C-63.17128418 96.37569092 -63.34256836 95.75138184 -63.51904297 95.1081543 C-68.85960852 71.69912713 -59.14093399 43.06952968 -47.09375 23.21484375 C-40.35165526 12.86270947 -32.22556793 0.43465903 -19.375 -2.625 C-5.90734824 -4.12140575 -5.90734824 -4.12140575 0 0 Z " fill="#0506F9" transform="translate(793,597)"/>
<path d="M0 0 C6.87651104 4.45645136 9.45926211 11.74950957 11.22265625 19.41015625 C12.91715537 31.147964 12.4773334 43.58414077 9.7578125 55.1171875 C9.60715332 55.80071289 9.45649414 56.48423828 9.30126953 57.18847656 C4.16326282 80.23793991 -5.75925463 101.34421411 -25.93359375 114.85546875 C-33.31949674 118.89209593 -41.01016588 118.98708967 -49.2421875 118.1171875 C-54.06344764 116.24949213 -56.25091436 111.84450574 -58.3828125 107.375 C-66.58284998 85.83126517 -60.62380245 60.04928904 -51.83203125 39.53515625 C-44.92572606 24.68744854 -36.04135618 7.85169571 -20.4921875 0.6171875 C-14.04398067 -1.62610442 -6.47803688 -2.55058595 0 0 Z " fill="#0506F9" transform="translate(1347.2421875,594.8828125)"/>
<path d="M0 0 C1.34771484 -0.03673828 1.34771484 -0.03673828 2.72265625 -0.07421875 C9.42360754 -0.10348055 15.0371152 1.08731078 20.02490234 5.82275391 C25.87173601 12.54502669 26.31580913 18.75680209 25.73828125 27.38671875 C24.44191676 38.20392405 18.59207495 46.04131919 10.5625 52.875 C9.881875 53.37 9.20125 53.865 8.5 54.375 C9.58388635 56.81374429 10.71185036 58.62785366 12.4375 60.6875 C18.36237616 68.40779318 18.35461763 75.84650455 17.5 85.375 C15.38837812 95.91982877 9.21557602 103.07299889 0.5 109.0625 C-10.49227426 115.65786455 -22.41868783 119.52535832 -35.25 119.5 C-36.56484375 119.50257813 -37.8796875 119.50515625 -39.234375 119.5078125 C-42.5 119.375 -42.5 119.375 -44.5 118.375 C-43.75847535 111.41879254 -42.44788848 104.60035455 -41.14645386 97.72982788 C-38.05890693 81.33761796 -35.63205394 64.89679077 -33.43443298 48.36471558 C-32.33465234 40.09328169 -31.18128362 31.8294335 -30.02786255 23.56533813 C-29.48948382 19.7052597 -28.95378654 15.8448096 -28.41796875 11.984375 C-28.11197917 9.78125 -27.80598958 7.578125 -27.5 5.375 C-18.1265528 2.12033083 -9.97592913 0.01431267 0 0 Z " fill="#0406F9" transform="translate(262.5,594.625)"/>
<path d="M0 0 C-0.44891673 3.37632159 -0.91081693 6.75074614 -1.375 10.125 C-1.56449219 11.55199219 -1.56449219 11.55199219 -1.7578125 13.0078125 C-1.88671875 13.9359375 -2.015625 14.8640625 -2.1484375 15.8203125 C-2.26364746 16.66867676 -2.37885742 17.51704102 -2.49755859 18.39111328 C-3 21 -3 21 -3.99438477 23.96533203 C-4.97522455 26.92523456 -5.51038624 29.65106173 -5.94140625 32.734375 C-6.71926848 38.08606713 -7.53721112 43.42752115 -8.40234375 48.765625 C-8.52678864 49.53555786 -8.65123352 50.30549072 -8.77944946 51.09875488 C-9.03586013 52.68421083 -9.2925668 54.26961893 -9.54956055 55.85498047 C-9.93467324 58.23254848 -10.31795269 60.61040741 -10.70117188 62.98828125 C-11.94760602 70.69499988 -13.2366077 78.39033132 -14.6171875 86.07421875 C-15.65837325 91.88775433 -16.5700301 97.68803861 -17.1875 103.5625 C-17.26935547 104.29662109 -17.35121094 105.03074219 -17.43554688 105.78710938 C-17.62855767 107.52420649 -17.8151085 109.26201994 -18 111 C-22.73985758 112.83329269 -27.36898541 114.47566568 -32.3125 115.6875 C-33.31925781 115.93886719 -34.32601563 116.19023438 -35.36328125 116.44921875 C-38 117 -38 117 -41 117 C-41.08040527 116.02877197 -41.16081055 115.05754395 -41.24365234 114.05688477 C-41.55013212 110.36441664 -41.86049214 106.67228222 -42.171875 102.98022461 C-42.30472742 101.39892947 -42.43660343 99.81755192 -42.56738281 98.23608398 C-43.32635109 89.06716332 -44.16243592 79.92587929 -45.37142944 70.80360413 C-45.96124554 66.15494965 -46.07478099 61.67446225 -46 57 C-46.66 57 -47.32 57 -48 57 C-48.07565186 57.97030151 -48.07565186 57.97030151 -48.15283203 58.96020508 C-48.76378259 66.25723768 -49.73744942 73.45542953 -50.875 80.6875 C-51.05135986 81.82147217 -51.22771973 82.95544434 -51.40942383 84.1237793 C-52.77202122 92.78437682 -54.28482936 101.40229748 -56 110 C-56.19207031 110.96292969 -56.38414063 111.92585937 -56.58203125 112.91796875 C-56.71996094 113.60503906 -56.85789062 114.29210937 -57 115 C-59.76941606 115.83830973 -62.54035069 116.67082034 -65.3125 117.5 C-66.49102539 117.85771484 -66.49102539 117.85771484 -67.69335938 118.22265625 C-68.45068359 118.44824219 -69.20800781 118.67382812 -69.98828125 118.90625 C-70.68477783 119.11572266 -71.38127441 119.32519531 -72.09887695 119.54101562 C-74 120 -74 120 -77 120 C-76.39830284 116.18710622 -75.79314632 112.37476832 -75.1875 108.5625 C-75.02185547 107.51255859 -74.85621094 106.46261719 -74.68554688 105.38085938 C-73.70880684 99.24398334 -72.67354016 93.12063759 -71.578125 87.00390625 C-69.76104865 76.81723313 -68.15228436 66.59925929 -66.5625 56.375 C-66.33480423 54.91545395 -66.33480423 54.91545395 -66.10250854 53.42642212 C-63.43974226 36.31744397 -61.07927168 19.1895069 -59 2 C-51.41 2 -43.82 2 -36 2 C-33.66724006 15.82993393 -31.40190633 29.66267876 -29.30761719 43.53076172 C-29.07220215 45.0836792 -29.07220215 45.0836792 -28.83203125 46.66796875 C-28.69514893 47.57828857 -28.5582666 48.4886084 -28.41723633 49.42651367 C-28.00553379 51.96586796 -27.52083494 54.48097543 -27 57 C-26.85751831 56.12939941 -26.85751831 56.12939941 -26.7121582 55.24121094 C-24.65970555 42.73403953 -22.55342891 30.23585872 -20.375 17.75 C-20.16915283 16.54311523 -19.96330566 15.33623047 -19.7512207 14.09277344 C-19.55230225 12.96387695 -19.35338379 11.83498047 -19.1484375 10.671875 C-18.88812744 9.17285645 -18.88812744 9.17285645 -18.62255859 7.64355469 C-18.02858379 5.12137461 -17.39757125 3.17898515 -16 1 C-13.57421875 0.390625 -13.57421875 0.390625 -10.6875 0.25 C-9.74261719 0.19328125 -8.79773437 0.1365625 -7.82421875 0.078125 C-5.21408192 0.00592204 -2.6109032 -0.00548682 0 0 Z " fill="#0708F8" transform="translate(1431,594)"/>
<path d="M0 0 C0.10535664 10.23380915 -0.18147036 20.34666793 -0.875 30.5625 C-2.03257315 48.58836013 -2.57284946 66.6353306 -3.125 84.6875 C-3.1472036 85.41194935 -3.1694072 86.1363987 -3.19228363 86.88280106 C-3.4688781 95.92165165 -3.73811398 104.96071049 -4 114 C-7.08191704 114.67332993 -10.1657408 115.33748859 -13.25 116 C-14.12269531 116.19078125 -14.99539063 116.3815625 -15.89453125 116.578125 C-16.73886719 116.75859375 -17.58320312 116.9390625 -18.453125 117.125 C-19.22817383 117.29257812 -20.00322266 117.46015625 -20.80175781 117.6328125 C-23 118 -23 118 -27 118 C-26.86015045 114.62472444 -26.71204731 111.24985869 -26.5625 107.875 C-26.52318359 106.92367187 -26.48386719 105.97234375 -26.44335938 104.9921875 C-26.40146484 104.0640625 -26.35957031 103.1359375 -26.31640625 102.1796875 C-26.27974854 101.33132324 -26.24309082 100.48295898 -26.20532227 99.60888672 C-25.97797947 96.72020056 -25.47636553 93.8581932 -25 91 C-29.62 91 -34.24 91 -39 91 C-39.103125 92.19625 -39.20625 93.3925 -39.3125 94.625 C-41.25583483 112.25583483 -41.25583483 112.25583483 -44 115 C-45.78715644 115.20956883 -47.58043769 115.36811616 -49.375 115.5 C-52.52020509 115.73236344 -54.99627907 115.99875969 -58 117 C-59.56118428 117.06740865 -61.1250252 117.08514456 -62.6875 117.0625 C-63.49574219 117.05347656 -64.30398438 117.04445313 -65.13671875 117.03515625 C-65.75160156 117.02355469 -66.36648438 117.01195312 -67 117 C-65.51283357 105.07702779 -62.11765265 93.57468448 -59 82 C-58.65457256 80.70973585 -58.30946265 79.41938659 -57.96484375 78.12890625 C-57.35308829 75.83813366 -56.73975677 73.54778148 -56.125 71.2578125 C-55.18797805 67.7369349 -54.28028473 64.20885115 -53.375 60.6796875 C-47.88564367 39.29819465 -47.88564367 39.29819465 -44.7121582 28.75561523 C-42.24883165 20.56549268 -40.06655946 12.29873795 -38 4 C-37.38592285 3.9498877 -36.7718457 3.89977539 -36.13916016 3.84814453 C-33.30057723 3.61306189 -30.46282334 3.36907466 -27.625 3.125 C-26.65949219 3.04636719 -25.69398437 2.96773437 -24.69921875 2.88671875 C-19.14506462 2.40212812 -13.79735889 1.66288728 -8.36474609 0.39794922 C-5.54865685 -0.07595389 -2.85031708 -0.06112592 0 0 Z " fill="#0709F9" transform="translate(1485,595)"/>
<path d="M0 0 C3.16000656 2.6333388 4.7021256 4.10637681 6 8 C7.07435495 23.04096935 4.49310203 35.84310852 -5 48 C-8.16118788 51.52612261 -11.37569964 54.94551652 -15 58 C-15.66 58 -16.32 58 -17 58 C-16.59910156 59.00933594 -16.19820312 60.01867187 -15.78515625 61.05859375 C-12.07334027 70.46828541 -8.51543746 79.92972018 -5.0625 89.4375 C-4.6610376 90.53312256 -4.2595752 91.62874512 -3.84594727 92.75756836 C-3.47526123 93.78503174 -3.1045752 94.81249512 -2.72265625 95.87109375 C-2.22390991 97.24672485 -2.22390991 97.24672485 -1.71508789 98.65014648 C-1 101 -1 101 -1 104 C-3.72770166 104.98341615 -6.45702105 105.96185053 -9.1875 106.9375 C-9.95642578 107.21529297 -10.72535156 107.49308594 -11.51757812 107.77929688 C-12.26845703 108.04677734 -13.01933594 108.31425781 -13.79296875 108.58984375 C-14.4789917 108.83597412 -15.16501465 109.08210449 -15.87182617 109.33569336 C-18.2258936 110.07051239 -20.57615096 110.55374513 -23 111 C-23.24121582 109.95211304 -23.24121582 109.95211304 -23.48730469 108.88305664 C-23.96837594 106.79389664 -24.44967913 104.70479005 -24.93115234 102.61572266 C-25.47882607 100.23920405 -26.02602355 97.86257565 -26.57275391 95.48583984 C-27.79176153 90.19530352 -29.01465755 84.90640617 -30.2890625 79.62890625 C-30.47500977 78.85603271 -30.66095703 78.08315918 -30.85253906 77.28686523 C-31.19178953 75.88309754 -31.53468019 74.48020276 -31.88183594 73.07836914 C-32.64776193 69.90224702 -33 67.30416254 -33 64 C-33.66 64 -34.32 64 -35 64 C-35.20316506 65.62532051 -35.40631071 67.25064346 -35.609375 68.87597656 C-35.78874303 70.31026134 -35.96843857 71.7445052 -36.1484375 73.17871094 C-36.6090787 76.8526444 -37.06521604 80.52697084 -37.5078125 84.203125 C-38.47371344 92.17467108 -39.6099604 100.09109589 -41 108 C-44.26651375 109.03502777 -47.53877363 110.05053935 -50.8125 111.0625 C-51.74126953 111.35705078 -52.67003906 111.65160156 -53.62695312 111.95507812 C-54.51962891 112.22900391 -55.41230469 112.50292969 -56.33203125 112.78515625 C-57.15421143 113.04176025 -57.9763916 113.29836426 -58.82348633 113.56274414 C-61 114 -61 114 -64 113 C-63.90057098 112.41008774 -63.80114197 111.82017548 -63.69869995 111.21238708 C-57.46124836 74.22749407 -57.46124836 74.22749407 -51.5625 37.1875 C-51.44348328 36.4229953 -51.32446655 35.6584906 -51.20184326 34.87081909 C-49.55584008 24.2720275 -48.18904424 13.65961864 -47 3 C-45.73562142 2.51821001 -44.47050168 2.03836482 -43.20507812 1.55932617 C-42.50064575 1.29190109 -41.79621338 1.02447601 -41.07043457 0.74894714 C-29.279005 -3.51641706 -11.57782659 -6.46620337 0 0 Z " fill="#0608F9" transform="translate(544,599)"/>
<path d="M0 0 C0.83490967 -0.01377686 1.66981934 -0.02755371 2.5300293 -0.04174805 C9.78136923 0.01183856 16.26183496 1.14292152 21.875 5.9375 C26.78144119 11.9172252 25.3139224 20.95199818 24.875 28.375 C23.39914067 38.7466353 17.0119146 48.87208978 9.875 56.375 C8.75269655 57.19122069 7.62765988 58.00369567 6.5 58.8125 C5.200625 60.0809375 5.200625 60.0809375 3.875 61.375 C4.16198095 66.39888166 5.56033063 70.7542299 7.30859375 75.4453125 C7.54659195 76.08943085 7.78459015 76.73354919 8.02980042 77.39718628 C8.78420108 79.43394302 9.54822627 81.4669304 10.3125 83.5 C10.82158917 84.87086158 11.33005811 86.24195365 11.83789062 87.61328125 C14.30468658 94.39836211 14.30468658 94.39836211 17.09790039 101.05029297 C17.98658162 103.70879836 18.0931156 104.85222297 16.875 107.375 C15.14086914 108.47167969 15.14086914 108.47167969 12.91015625 109.296875 C11.71036133 109.75126953 11.71036133 109.75126953 10.48632812 110.21484375 C9.64521484 110.51519531 8.80410156 110.81554687 7.9375 111.125 C7.10025391 111.44082031 6.26300781 111.75664063 5.40039062 112.08203125 C-0.7687872 114.375 -0.7687872 114.375 -3.125 114.375 C-6.42307507 104.02838398 -9.0827318 93.60210045 -11.4375 83 C-11.70385254 81.80528076 -11.97020508 80.61056152 -12.24462891 79.37963867 C-14.125 70.77474942 -14.125 70.77474942 -14.125 67.375 C-14.785 67.375 -15.445 67.375 -16.125 67.375 C-16.23457031 68.2515625 -16.34414063 69.128125 -16.45703125 70.03125 C-16.70473761 72.01290089 -16.95261338 73.99453186 -17.203125 75.97583008 C-17.77544876 80.51668988 -18.32445575 85.05958099 -18.85546875 89.60546875 C-18.98268311 90.6728125 -19.10989746 91.74015625 -19.2409668 92.83984375 C-19.4939644 94.96290058 -19.74165626 97.08659743 -19.98364258 99.2109375 C-20.10247803 100.19707031 -20.22131348 101.18320312 -20.34375 102.19921875 C-20.44623047 103.07666748 -20.54871094 103.95411621 -20.65429688 104.8581543 C-21.16348453 107.58077649 -21.92929797 109.8776823 -23.125 112.375 C-24.97265625 113.1953125 -24.97265625 113.1953125 -27.1875 113.5 C-31.35940024 114.19980262 -35.1162402 115.32988255 -39.08203125 116.7890625 C-41.125 117.375 -41.125 117.375 -45.125 117.375 C-44.32765664 112.54064649 -43.52796993 107.70668785 -42.72631836 102.87304688 C-42.45520152 101.2364289 -42.18467189 99.59971351 -41.91479492 97.96289062 C-40.31605894 88.26925124 -38.64154656 78.60101063 -36.76074219 68.95776367 C-36.09419043 65.20137079 -35.61759671 61.47774316 -35.1875 57.6875 C-34.47428944 51.46492662 -33.37255052 45.38715285 -32.125 39.25 C-29.92923586 28.3611945 -28.91351564 17.44466979 -28.125 6.375 C-18.65275487 2.25613092 -10.39658134 0.09471442 0 0 Z " fill="#0608F9" transform="translate(992.125,595.625)"/>
<path d="M0 0 C5.97752748 6.04989464 8.28606696 10.68734143 8.3125 19.375 C8.24708657 28.27015434 6.36979523 33.48207 0 40 C-5.1 43 -5.1 43 -8 43 C-6.42603858 45.61025282 -4.84146867 48.21295215 -3.25 50.8125 C-2.8065625 51.55048828 -2.363125 52.28847656 -1.90625 53.04882812 C2.05751591 59.52816462 2.05751591 59.52816462 8.75 62.6875 C9.4925 62.790625 10.235 62.89375 11 63 C11.08075665 65.29109597 11.13907731 67.58299267 11.1875 69.875 C11.23970703 71.78925781 11.23970703 71.78925781 11.29296875 73.7421875 C11.19628906 74.81726563 11.09960938 75.89234375 11 77 C7.31915364 79.45389758 4.44976696 79.3672715 0.1875 79.375 C-0.51181641 79.39949219 -1.21113281 79.42398438 -1.93164062 79.44921875 C-7.05606929 79.47798074 -9.96876147 78.3996975 -14 75 C-15.6171875 72.9140625 -15.6171875 72.9140625 -16.875 70.625 C-17.36226562 69.76132812 -17.84953125 68.89765625 -18.3515625 68.0078125 C-18.89554688 67.01523437 -19.43953125 66.02265625 -20 65 C-21.05196163 63.12882961 -22.11048715 61.26155735 -23.17236328 59.39599609 C-23.88114245 58.14896867 -24.58538331 56.89934891 -25.28466797 55.64697266 C-26.6960522 53.1424506 -27.95635308 51.04364692 -30 49 C-32.43252661 48.53837573 -32.43252661 48.53837573 -35.125 48.375 C-36.03507812 48.30023438 -36.94515625 48.22546875 -37.8828125 48.1484375 C-38.58148437 48.09945312 -39.28015625 48.05046875 -40 48 C-39.98952637 48.86802246 -39.97905273 49.73604492 -39.96826172 50.63037109 C-39.93420284 53.84699528 -39.90911233 57.06352767 -39.89013672 60.28027344 C-39.88007123 61.67320781 -39.86641766 63.06612102 -39.84912109 64.45898438 C-39.8248978 66.4595436 -39.81459186 68.46025615 -39.8046875 70.4609375 C-39.79421387 71.66540527 -39.78374023 72.86987305 -39.77294922 74.11083984 C-40 77 -40 77 -42 79 C-43.93945312 79.25878906 -43.93945312 79.25878906 -46.28125 79.265625 C-47.12300781 79.26820313 -47.96476562 79.27078125 -48.83203125 79.2734375 C-49.71246094 79.26570313 -50.59289063 79.25796875 -51.5 79.25 C-52.38042969 79.25773437 -53.26085938 79.26546875 -54.16796875 79.2734375 C-55.00972656 79.27085937 -55.85148437 79.26828125 -56.71875 79.265625 C-57.49154297 79.26336914 -58.26433594 79.26111328 -59.06054688 79.25878906 C-61 79 -61 79 -63 77 C-63.21396194 74.49264287 -63.30409628 72.09426001 -63.30639648 69.58447266 C-63.31472 68.8200737 -63.32304352 68.05567474 -63.33161926 67.26811218 C-63.35577546 64.7333776 -63.36449828 62.19890009 -63.37109375 59.6640625 C-63.3800561 57.90530315 -63.38917787 56.1465446 -63.39845276 54.38778687 C-63.41496078 50.69730779 -63.42264611 47.00691962 -63.42553711 43.31640625 C-63.43092162 38.58586057 -63.46859612 33.85616857 -63.51428127 29.12586403 C-63.54401572 25.49188107 -63.55125988 21.85810452 -63.55226326 18.22401047 C-63.5564731 16.48005642 -63.56893799 14.73610218 -63.58978081 12.99226761 C-63.61662069 10.55231149 -63.6118933 8.11434447 -63.59936523 5.67431641 C-63.61419952 4.95313126 -63.62903381 4.23194611 -63.64431763 3.48890686 C-63.58990331 -0.23020902 -63.2833198 -1.7085802 -60.65003967 -4.41714478 C-46.20321019 -13.04616258 -12.75935666 -10.89213374 0 0 Z " fill="#0607DD" transform="translate(1721,276)"/>
<path d="M0 0 C7.26 0 14.52 0 22 0 C21.85900879 1.71695068 21.71801758 3.43390137 21.57275391 5.20288086 C21.0975769 10.9902139 20.6226455 16.77756706 20.1478672 22.56493282 C19.86108184 26.06063354 19.5742094 29.55632706 19.28710938 33.05200195 C17.83777516 50.6997239 16.40271025 68.34850056 15 86 C15.99 86 16.98 86 18 86 C18.10594482 85.05672852 18.21188965 84.11345703 18.32104492 83.14160156 C19.54953511 72.58476968 21.33199082 62.18866255 23.3125 51.75 C23.7809639 49.25293388 24.24774124 46.75555669 24.71429443 44.25813293 C25.02616726 42.58875749 25.33854199 40.91947572 25.65142822 39.25028992 C27.3308192 30.27530151 28.92032105 21.28493064 30.48950195 12.29003906 C30.67601318 11.23139648 30.86252441 10.17275391 31.0546875 9.08203125 C31.21437012 8.16655518 31.37405273 7.2510791 31.53857422 6.30786133 C32 4 32 4 33 1 C43.395 0.505 43.395 0.505 54 0 C52.55439762 8.45234861 50.72056706 16.78316068 48.77310181 25.13000488 C45.69896312 38.32328056 42.7884553 51.53666177 40.08789062 64.81201172 C38.35238024 73.34254726 36.50976304 81.84491252 34.61694336 90.34179688 C33.2806112 96.43252512 32.23465564 102.4692388 31.5546875 108.671875 C30.88527323 111.48152926 30.26846443 112.23761473 28 114 C25.29199219 114.70776367 25.29199219 114.70776367 22.046875 115.16796875 C20.86996094 115.33876953 19.69304688 115.50957031 18.48046875 115.68554688 C17.24941406 115.85119141 16.01835938 116.01683594 14.75 116.1875 C13.53441406 116.36474609 12.31882812 116.54199219 11.06640625 116.72460938 C5.33851669 117.53350981 -0.21347622 118.24823845 -6 118 C-5.88523463 114.31211282 -5.75598912 110.62484368 -5.625 106.9375 C-5.5940625 105.93783203 -5.563125 104.93816406 -5.53125 103.90820312 C-5.3071607 97.80176977 -4.90219759 91.75245192 -4.32391357 85.67092896 C-2.7601156 69.1323871 -2.13535623 52.56499591 -1.47198486 35.97137451 C-1.30809261 31.90067868 -1.13812702 27.83023627 -0.96875 23.75976562 C-0.64005989 15.8400709 -0.31839979 7.92011511 0 0 Z " fill="#0608F9" transform="translate(559,596)"/>
<path d="M0 0 C3.81854877 2.66808857 6.34230662 5.81988862 7.828125 10.27734375 C7.94791645 12.23300878 8.00340996 14.19305141 8.015625 16.15234375 C8.02980469 17.18101562 8.04398438 18.2096875 8.05859375 19.26953125 C7.81481144 22.45109693 7.45298617 24.52571873 5.828125 27.27734375 C3.47265625 28.3515625 3.47265625 28.3515625 0.640625 28.96484375 C-0.3390625 29.19171875 -1.31875 29.41859375 -2.328125 29.65234375 C-3.2665625 29.85859375 -4.205 30.06484375 -5.171875 30.27734375 C-6.57118224 30.6607156 -7.96782055 31.05422113 -9.359375 31.46484375 C-10.2875 31.73296875 -11.215625 32.00109375 -12.171875 32.27734375 C-12.22085938 31.59027344 -12.26984375 30.90320313 -12.3203125 30.1953125 C-12.39507813 29.29425781 -12.46984375 28.39320313 -12.546875 27.46484375 C-12.65128906 26.12486328 -12.65128906 26.12486328 -12.7578125 24.7578125 C-13.03832536 22.03335876 -13.03832536 22.03335876 -15.171875 19.27734375 C-17.49867795 18.60756881 -17.49867795 18.60756881 -20.171875 19.27734375 C-23.05046766 21.1456611 -25.61285889 23.15931154 -27.171875 26.27734375 C-27.59834251 30.71260583 -27.49434085 33.95480901 -24.76953125 37.6171875 C-21.75321873 40.75149757 -18.26079994 43.34432236 -14.8671875 46.0546875 C-7.93912163 51.76783167 -3.95015284 57.63276349 -2.88574219 66.72021484 C-2.77130528 69.22638305 -2.75472396 71.70649569 -2.796875 74.21484375 C-2.80775146 75.0951123 -2.81862793 75.97538086 -2.82983398 76.88232422 C-3.11992781 88.68969019 -6.3796763 97.71061223 -15.0546875 106.09765625 C-23.37428878 112.80049291 -33.57625266 116.13601039 -44.171875 115.27734375 C-51.27434018 113.19558671 -57.0886148 108.40223405 -61.171875 102.27734375 C-60.93419644 96.19737278 -58.65481355 91.295611 -56.109375 85.83984375 C-55.73232422 85.01291016 -55.35527344 84.18597656 -54.96679688 83.33398438 C-54.04313142 81.31127396 -53.11140546 79.29272118 -52.171875 77.27734375 C-51.03298828 78.42976562 -51.03298828 78.42976562 -49.87109375 79.60546875 C-44.34927678 85.61270575 -44.34927678 85.61270575 -37.1484375 88.296875 C-33.49997431 87.97566479 -30.80188112 87.64612782 -27.609375 85.77734375 C-25.43963091 82.00387576 -25.38337853 78.52309399 -26.171875 74.27734375 C-28.02903687 71.36924832 -28.02903687 71.36924832 -30.171875 69.27734375 C-30.171875 68.61734375 -30.171875 67.95734375 -30.171875 67.27734375 C-30.75976807 67.00728516 -31.34766113 66.73722656 -31.95336914 66.45898438 C-40.48185613 61.91646462 -49.97642301 52.44741469 -53.57421875 43.50390625 C-55.45938425 36.48074066 -54.06548596 29.87321789 -51.171875 23.27734375 C-43.9390279 10.84100953 -33.35126603 2.61046322 -19.671875 -1.47265625 C-12.41934899 -3.28328688 -6.73352825 -3.7246485 0 0 Z " fill="#0607F9" transform="translate(861.171875,598.72265625)"/>
<path d="M0 0 C4.11487387 4.02418795 4.31135035 8.25435081 4.5859375 13.74609375 C4.59238281 14.865 4.59882813 15.98390625 4.60546875 17.13671875 C4.61964844 18.2659375 4.63382812 19.39515625 4.6484375 20.55859375 C4.41796875 23.38671875 4.41796875 23.38671875 2.41796875 25.38671875 C0.33620442 26.13933478 -1.77300254 26.81732515 -3.89453125 27.44921875 C-5.02503906 27.79082031 -6.15554688 28.13242187 -7.3203125 28.484375 C-10.04397721 29.23786787 -12.81094063 29.83250063 -15.58203125 30.38671875 C-15.91203125 26.09671875 -16.24203125 21.80671875 -16.58203125 17.38671875 C-22.75038765 17.38671875 -24.00059044 17.76418416 -28.58203125 21.38671875 C-29.78958433 23.8018249 -29.81775873 25.50409924 -29.89453125 28.19921875 C-29.93191406 29.05128906 -29.96929687 29.90335938 -30.0078125 30.78125 C-29.26842722 35.30574522 -26.54890555 37.65499061 -22.99609375 40.34375 C-22.07570313 40.95605469 -21.1553125 41.56835938 -20.20703125 42.19921875 C-13.12252035 47.23394449 -7.17287217 53.52346218 -5.58203125 62.38671875 C-4.80289117 74.84059267 -4.61408593 87.72501371 -12.6328125 98.01953125 C-20.59848547 106.79690491 -28.32154484 112.05618909 -40.30078125 113.77734375 C-49.04832136 114.15532388 -54.32812906 110.79200655 -60.64453125 105.01171875 C-62.9921875 102.80078125 -62.9921875 102.80078125 -64.58203125 100.38671875 C-64.58203125 94.80247635 -61.71905494 89.55656756 -59.51953125 84.51171875 C-59.14248047 83.63257813 -58.76542969 82.7534375 -58.37695312 81.84765625 C-57.45117053 79.69140311 -56.51941214 77.53794896 -55.58203125 75.38671875 C-54.92203125 75.38671875 -54.26203125 75.38671875 -53.58203125 75.38671875 C-52.25 77.03125 -52.25 77.03125 -50.76953125 79.19921875 C-48.34563858 82.50718822 -46.50124026 84.85727133 -42.58203125 86.38671875 C-37.5484098 86.92603533 -34.65109681 86.40945317 -30.58203125 83.38671875 C-28.31879958 81.12348708 -28.14299698 80.47873672 -27.89453125 77.38671875 C-28.0150111 71.62222136 -31.1692157 68.69230557 -35.06640625 64.74609375 C-39.32569403 60.75135801 -43.58171645 56.87532511 -48.26953125 53.38671875 C-52.93915643 49.348124 -56.23506818 44.68506385 -56.890625 38.453125 C-57.32486174 26.64978089 -54.07972307 18.79428614 -46.08203125 10.13671875 C-34.6186641 -0.63084463 -14.5849317 -10.72137364 0 0 Z " fill="#0607F9" transform="translate(431.58203125,600.61328125)"/>
<path d="M0 0 C6.74504832 5.86525941 6.74504832 5.86525941 7.22705078 9.90112305 C7.21657715 10.59761963 7.20610352 11.29411621 7.1953125 12.01171875 C7.18886719 12.76904297 7.18242188 13.52636719 7.17578125 14.30664062 C7.15064453 15.48516602 7.15064453 15.48516602 7.125 16.6875 C7.11597656 17.48478516 7.10695313 18.28207031 7.09765625 19.10351562 C7.07411585 21.069139 7.03824547 23.03460775 7 25 C0.42321498 27.75665244 -6.14240492 30.04068712 -13 32 C-13.33 27.71 -13.66 23.42 -14 19 C-18.07674421 18.68025536 -20.32029296 18.56196658 -23.8125 20.8125 C-26.56976954 23.56976954 -27.88986783 25.2979074 -28.5 29.1875 C-27.80143336 34.51407065 -25.78236255 37.25152959 -22 41 C-19.82892561 42.65687256 -17.65063904 44.2772594 -15.4375 45.875 C-8.52646552 50.87766969 -4.59782896 56.56530672 -3 65 C-2.1057077 79.1538954 -3.31710683 91.93096653 -13 103 C-17.52561073 107.8280133 -22.70790059 110.92702151 -29 113 C-29.99 113 -30.98 113 -32 113 C-32 113.66 -32 114.32 -32 115 C-42.1468595 115.71568758 -49.31019621 114.81367471 -57.20703125 108.1328125 C-60.38464694 104.9113244 -61.94108789 103.09969268 -62.1875 98.5 C-61.06585237 95.19409119 -59.76602071 92.26613385 -58.12109375 89.19921875 C-56.11411443 85.26218266 -54.58728181 81.12017832 -53 77 C-52.34 77 -51.68 77 -51 77 C-50.1646875 78.3303125 -50.1646875 78.3303125 -49.3125 79.6875 C-46.89970704 83.44966977 -44.02391816 86.02600241 -40 88 C-36.00497081 88.55103851 -33.83509709 88.38971197 -30.1875 86.6875 C-27.77961482 85.01607792 -27.77961482 85.01607792 -26 82 C-25.49141216 77.50747405 -25.70386718 74.34725109 -28.4765625 70.66015625 C-32.66978619 66.09061761 -37.46820049 62.07984917 -42.25390625 58.1484375 C-47.73422191 53.59364004 -51.72195526 48.83413422 -54 42 C-54.64868511 31.78320956 -53.04354412 22.09051118 -46.20703125 14.16015625 C-34.49958833 2.70136699 -16.36507303 -9.04009493 0 0 Z " fill="#0607F9" transform="translate(1251,599)"/>
<path d="M0 0 C3.421247 2.47717649 5.3393586 4.75652894 6.25 8.90234375 C6.69270863 12.49509455 6.75289059 15.95531654 6.71875 19.57421875 C6.70972656 20.81945312 6.70070313 22.0646875 6.69140625 23.34765625 C6.67980469 24.28867187 6.66820312 25.2296875 6.65625 26.19921875 C3.69954782 27.2040877 0.74063423 28.20227899 -2.21875 29.19921875 C-3.06050781 29.48539063 -3.90226562 29.7715625 -4.76953125 30.06640625 C-5.57519531 30.33710937 -6.38085938 30.6078125 -7.2109375 30.88671875 C-7.95456543 31.13808594 -8.69819336 31.38945313 -9.46435547 31.6484375 C-11.34375 32.19921875 -11.34375 32.19921875 -13.34375 32.19921875 C-13.39273437 31.42835938 -13.44171875 30.6575 -13.4921875 29.86328125 C-13.56695313 28.86039063 -13.64171875 27.8575 -13.71875 26.82421875 C-13.82316406 25.32761719 -13.82316406 25.32761719 -13.9296875 23.80078125 C-14.10738964 21.04412996 -14.10738964 21.04412996 -16.34375 19.19921875 C-20.41455397 19.28968106 -22.04932792 19.94405294 -25.15625 22.63671875 C-27.51223794 25.39659034 -28.25175797 26.38968886 -28.65625 29.94921875 C-28.15455364 35.16686089 -25.99554353 37.82033024 -22.09765625 41.07421875 C-20.36023658 42.42818964 -18.62192878 43.78102153 -16.8828125 45.1328125 C-9.6424682 51.02533886 -5.27221004 57.08656518 -4.04370117 66.49780273 C-3.9074163 68.8241133 -3.87567432 71.11920776 -3.90625 73.44921875 C-3.91454834 74.27405762 -3.92284668 75.09889648 -3.93139648 75.94873047 C-4.24134266 87.28106872 -7.09254073 97.11172395 -15.34375 105.19921875 C-22.7714258 111.56987915 -33.18575883 116.19880702 -43.125 115.640625 C-50.65635414 114.14230983 -56.14290648 109.98026435 -61.26171875 104.45703125 C-62.91576092 101.0056364 -62.23997496 98.89332248 -61.34375 95.19921875 C-60.13682201 91.98120989 -58.73392778 88.87531655 -57.28125 85.76171875 C-56.90419922 84.93478516 -56.52714844 84.10785156 -56.13867188 83.25585938 C-55.21500642 81.23314896 -54.28328046 79.21459618 -53.34375 77.19921875 C-52.20486328 78.35164062 -52.20486328 78.35164062 -51.04296875 79.52734375 C-44.99304298 85.82092597 -44.99304298 85.82092597 -37.03125 88.44921875 C-33.11742606 88.18387475 -31.41182521 87.56601963 -28.34375 85.19921875 C-25.92680671 81.57380381 -25.70891429 80.48435982 -26.34375 76.19921875 C-29.4275702 69.06965278 -35.24119097 64.38323743 -41.14111328 59.62451172 C-47.888888 54.14602796 -53.67276673 48.78644479 -54.75 39.81640625 C-54.97544053 30.81757164 -53.61656068 24.69423643 -48.34375 17.19921875 C-47.745625 16.29171875 -47.1475 15.38421875 -46.53125 14.44921875 C-35.45772133 3.05930355 -15.68174949 -9.15839878 0 0 Z " fill="#0506F8" transform="translate(1646.34375,598.80078125)"/>
<path d="M0 0 C5.06326816 3.88576394 8.25039968 8.90508085 10 15 C12.13429151 31.60419095 9.15906394 47.49913871 -1 61 C-1.94166016 62.28777344 -1.94166016 62.28777344 -2.90234375 63.6015625 C-5.11867078 66.13568689 -7.15241115 67.58207577 -10.0625 69.25 C-11.34833984 70.00023437 -11.34833984 70.00023437 -12.66015625 70.765625 C-15.9641928 72.50865597 -18.50349352 73.12289355 -22.1875 73.0625 C-23.445625 73.041875 -24.70375 73.02125 -26 73 C-26.10957031 73.99515625 -26.21914063 74.9903125 -26.33203125 76.015625 C-26.75734965 79.81130436 -27.21541564 83.60245347 -27.68359375 87.39306641 C-27.89963492 89.1730723 -28.107616 90.9540703 -28.30859375 92.73583984 C-28.62058745 95.47300677 -28.96358928 98.20482134 -29.3125 100.9375 C-29.40571533 101.80729492 -29.49893066 102.67708984 -29.5949707 103.57324219 C-29.89883496 105.82744402 -30.22888458 107.86028826 -31 110 C-33.16796875 111.46875 -33.16796875 111.46875 -36 112 C-37.11375 112.26941406 -38.2275 112.53882813 -39.375 112.81640625 C-40.57125 113.06261719 -41.7675 113.30882812 -43 113.5625 C-44.19625 113.81128906 -45.3925 114.06007813 -46.625 114.31640625 C-49.4158752 114.88168768 -52.20714238 115.44460218 -55 116 C-54.73916459 113.58190231 -54.46644124 111.16602653 -54.1875 108.75 C-54.08211914 107.75613281 -54.08211914 107.75613281 -53.97460938 106.7421875 C-53.46974551 102.46094188 -52.63311092 98.38139082 -51.55078125 94.20703125 C-49.98704942 88.15932823 -48.93378845 82.10998338 -48 75.9375 C-47.83121338 74.85404297 -47.66242676 73.77058594 -47.48852539 72.65429688 C-46.98776044 69.43688798 -46.49355087 66.21852213 -46 63 C-45.48272293 59.66610443 -44.96136056 56.33286701 -44.4375 53 C-44.31689209 52.23051025 -44.19628418 51.46102051 -44.07202148 50.66821289 C-43.18530591 45.0559448 -42.20868019 39.46309256 -41.20166016 33.87133789 C-39.31129758 23.27418767 -37.67785933 12.63242411 -36 2 C-34.27255984 1.34956281 -32.5429631 0.70485156 -30.8125 0.0625 C-29.84957031 -0.29714844 -28.88664063 -0.65679688 -27.89453125 -1.02734375 C-18.68908315 -4.12067246 -8.74549848 -4.44946414 0 0 Z " fill="#0708F9" transform="translate(945,598)"/>
<path d="M0 0 C4.84482366 4.73471403 7.7297552 9.88757916 8.1796875 16.734375 C8.18655303 19.16477227 8.13424456 21.57365389 8 24 C5.60872043 24.86928276 3.21338274 25.72051601 0.8125 26.5625 C0.13896484 26.80935547 -0.53457031 27.05621094 -1.22851562 27.31054688 C-6.38121159 29.09513914 -9.41781256 29.18641045 -14.3125 26.9375 C-15.1478125 26.4734375 -15.1478125 26.4734375 -16 26 C-24.62803508 33.94836492 -28.00421303 45.16079295 -30.95703125 56.15234375 C-31.86085838 59.48668729 -32.89701334 62.72827163 -34 66 C-35.24402369 69.82655388 -35.1478974 73.64085162 -35.125 77.625 C-35.12886719 78.305625 -35.13273438 78.98625 -35.13671875 79.6875 C-35.18405111 83.46957632 -35.18405111 83.46957632 -34 87 C-31.16270882 87.05674582 -29.5733052 87.06232639 -27 86 C-23.53720172 82.13855 -21.30639592 77.61279184 -19 73 C-14.38 75.31 -9.76 77.62 -5 80 C-7.704 93.52000001 -16.16330529 103.90183861 -27.17578125 111.84375 C-32.38548649 115.14583298 -36.84695203 116.22691961 -43 115 C-49.26522626 111.15662591 -53.79279475 105.80491269 -55.625 98.6875 C-55.86476563 97.78386719 -56.10453125 96.88023437 -56.3515625 95.94921875 C-61.39590731 73.00656615 -56.61253198 43.12909144 -44 23 C-43.49082031 22.13761719 -42.98164062 21.27523437 -42.45703125 20.38671875 C-36.22648295 10.16033188 -29.06760796 2.52957848 -18 -2.3125 C-11.18894743 -3.87336621 -6.11733145 -3.46264044 0 0 Z " fill="#0709F8" transform="translate(695,599)"/>
<path d="M0 0 C-0.28487651 2.04262517 -0.57822051 4.08407027 -0.875 6.125 C-1.03742188 7.26195312 -1.19984375 8.39890625 -1.3671875 9.5703125 C-2 13 -2 13 -4 19 C-10.93 19 -17.86 19 -25 19 C-26.5700347 32.99263486 -26.5700347 32.99263486 -28 47 C-22.39 47 -16.78 47 -11 47 C-10.86607143 59.1875 -10.86607143 59.1875 -12 64 C-18.69675136 65.03026944 -25.2314676 65.10152799 -32 65 C-31.95875 66.0828125 -31.9175 67.165625 -31.875 68.28125 C-31.875 73.80860542 -32.94944077 79.09103964 -34 84.5 C-34.19078125 85.51320313 -34.3815625 86.52640625 -34.578125 87.5703125 C-35.04564611 90.04817439 -35.51973328 92.52458268 -36 95 C-35.2265625 94.7834375 -34.453125 94.566875 -33.65625 94.34375 C-27.5830659 92.72022554 -22.28389231 91.63746775 -16 92 C-15.90293888 98.11485027 -16.22959149 103.93303301 -17 110 C-17.97195313 110.17015625 -18.94390625 110.3403125 -19.9453125 110.515625 C-21.33855319 110.76035105 -22.73178125 111.00514908 -24.125 111.25 C-25.24310059 111.44589722 -25.24310059 111.44589722 -26.38378906 111.64575195 C-30.87765519 112.43681564 -35.36639064 113.25081111 -39.8515625 114.08984375 C-41.32085205 114.36296387 -41.32085205 114.36296387 -42.81982422 114.64160156 C-44.74661726 115.0005675 -46.67275055 115.36309628 -48.59814453 115.72949219 C-49.48872559 115.89481445 -50.37930664 116.06013672 -51.296875 116.23046875 C-52.47781738 116.45319458 -52.47781738 116.45319458 -53.68261719 116.68041992 C-56.14884979 117.02052722 -58.51354335 117.05420894 -61 117 C-61.12658919 111.36678089 -60.70776864 106.16857699 -59.75 100.625 C-59.47187745 98.94283691 -59.19457946 97.26053735 -58.91796875 95.578125 C-58.7689209 94.68029297 -58.61987305 93.78246094 -58.46630859 92.85742188 C-57.62511605 87.70280539 -56.84889999 82.53820503 -56.0625 77.375 C-54.69156354 68.43350649 -53.2984941 59.49578199 -51.875 50.5625 C-51.71652588 49.56331543 -51.55805176 48.56413086 -51.39477539 47.53466797 C-50.5019318 41.95638743 -49.53598347 36.39688555 -48.51318359 30.84106445 C-47.57985658 25.67402049 -46.73149907 20.49273329 -45.875 15.3125 C-45.69324219 14.21744141 -45.51148438 13.12238281 -45.32421875 11.99414062 C-44.88205976 9.32955091 -44.44066508 6.6648371 -44 4 C-29.25511232 1.36875742 -15.01759387 -0.22120842 0 0 Z " fill="#090AF9" transform="translate(1198,596)"/>
<path d="M0 0 C-0.45572917 2.01822917 -0.91145833 4.03645833 -1.3671875 6.0546875 C-2.29217646 10.35988302 -3.13641372 14.68206858 -4 19 C-10.93 19 -17.86 19 -25 19 C-25.28875 21.02125 -25.5775 23.0425 -25.875 25.125 C-26.91666667 32.41666667 -27.95833333 39.70833333 -29 47 C-23.06 47 -17.12 47 -11 47 C-11.33 52.61 -11.66 58.22 -12 64 C-18.71162938 64.88021369 -25.23405981 65.11381955 -32 65 C-33.27665042 74.65544349 -34.367277 84.27604657 -35 94 C-34.21496094 93.855625 -33.42992187 93.71125 -32.62109375 93.5625 C-31.57050781 93.376875 -30.51992187 93.19125 -29.4375 93 C-28.40496094 92.814375 -27.37242187 92.62875 -26.30859375 92.4375 C-23 92 -23 92 -16 92 C-16.33 97.94 -16.66 103.88 -17 110 C-19.805 110.433125 -22.61 110.86625 -25.5 111.3125 C-40.16498276 112.84419852 -40.16498276 112.84419852 -54 117 C-56.6723621 117.13415472 -59.32250488 117.04318541 -62 117 C-61.12258537 103.26392263 -58.39812686 89.71928909 -55.74609375 76.234375 C-55.12478296 72.87321279 -54.63620717 69.50240509 -54.1640625 66.1171875 C-52.74178896 55.99065382 -51.10392928 45.89807845 -49.48608398 35.80126953 C-48.9332286 32.3483223 -48.38352315 28.89488269 -47.83398438 25.44140625 C-47.48196023 23.23955305 -47.12975338 21.03772904 -46.77734375 18.8359375 C-46.61378891 17.80681244 -46.45023407 16.77768738 -46.28172302 15.71737671 C-46.12808792 14.76182892 -45.97445282 13.80628113 -45.81616211 12.82177734 C-45.68229599 11.98464203 -45.54842987 11.14750671 -45.4105072 10.28500366 C-45.02849946 8.15863637 -44.55190462 6.08799067 -44 4 C-29.16466628 0.93638035 -15.14520163 -0.56267003 0 0 Z " fill="#0607F9" transform="translate(229,596)"/>
<path d="M0 0 C-1.32 6.27 -2.64 12.54 -4 19 C-10.93 19 -17.86 19 -25 19 C-25.33 21.64 -25.66 24.28 -26 27 C-26.24374571 28.71983788 -26.49402535 30.43877621 -26.75390625 32.15625 C-26.88603516 33.0328125 -27.01816406 33.909375 -27.15429688 34.8125 C-27.28900391 35.699375 -27.42371094 36.58625 -27.5625 37.5 C-27.70107422 38.4178125 -27.83964844 39.335625 -27.98242188 40.28125 C-28.32071287 42.52096971 -28.66022918 44.7605043 -29 47 C-23.06 47 -17.12 47 -11 47 C-10.92031644 52.81689987 -11.00359279 58.27065855 -12 64 C-16.51815281 64.88277755 -20.77512694 65.10589503 -25.375 65.0625 C-26.62023437 65.05347656 -27.86546875 65.04445313 -29.1484375 65.03515625 C-30.08945312 65.02355469 -31.03046875 65.01195312 -32 65 C-32.04898437 65.55945313 -32.09796875 66.11890625 -32.1484375 66.6953125 C-33.03328388 76.18452718 -34.40575516 85.60534293 -36 95 C-35.2265625 94.7834375 -34.453125 94.566875 -33.65625 94.34375 C-27.5830659 92.72022554 -22.28389231 91.63746775 -16 92 C-15.90308547 98.10561566 -16.26735899 103.94146356 -17 110 C-17.8564209 110.14099121 -18.7128418 110.28198242 -19.59521484 110.42724609 C-22.81972536 110.95893108 -26.04397423 111.49215355 -29.26806641 112.02636719 C-30.65468572 112.2558101 -32.04140212 112.48466713 -33.42822266 112.71289062 C-40.60596204 113.89449682 -47.76980597 115.07705083 -54.87353516 116.65478516 C-57.27738093 117.04503061 -59.56882685 117.05698478 -62 117 C-61.6920761 114.20775806 -61.37887563 111.41628573 -61.0625 108.625 C-60.93198242 107.43390625 -60.93198242 107.43390625 -60.79882812 106.21875 C-60.11328125 100.2265625 -60.11328125 100.2265625 -59 98 C-58.67020385 96.20951823 -58.38545661 94.41068084 -58.12109375 92.609375 C-57.94690918 91.43697266 -57.77272461 90.26457031 -57.59326172 89.05664062 C-57.49841492 88.40767822 -57.40356812 87.75871582 -57.30584717 87.09008789 C-56.98232098 84.87918575 -56.65402967 82.66903032 -56.32470703 80.45898438 C-55.82865344 77.12897268 -55.33293287 73.79891222 -54.83789062 70.46875 C-54.71003174 69.60894531 -54.58217285 68.74914062 -54.45043945 67.86328125 C-54.19289192 66.12836069 -53.93604996 64.39333524 -53.67993164 62.65820312 C-52.16125326 52.37672133 -50.54078663 42.12655719 -48.69848633 31.89794922 C-47.68687984 26.25261219 -46.74768405 20.59590935 -45.8125 14.9375 C-45.63525391 13.86951172 -45.45800781 12.80152344 -45.27539062 11.70117188 C-44.8494874 9.13424162 -44.42435254 6.56718697 -44 4 C-29.24912422 1.42547832 -15.00365204 0 0 0 Z " fill="#0709F9" transform="translate(491,596)"/>
<path d="M0 0 C-0.28632177 1.85499955 -0.57934415 3.70896524 -0.875 5.5625 C-1.03742188 6.59503906 -1.19984375 7.62757813 -1.3671875 8.69140625 C-2.03342568 12.17476266 -3.02570218 15.58995763 -4 19 C-10.93 19 -17.86 19 -25 19 C-25.28875 21.76375 -25.5775 24.5275 -25.875 27.375 C-26.59034581 34.00929408 -27.52860053 40.48380235 -29 47 C-22.73 47 -16.46 47 -10 47 C-10.63009441 52.67084972 -11.29228911 58.3383129 -12 64 C-18.27 64.33 -24.54 64.66 -31 65 C-31.67047943 69.08274083 -32.33653734 73.16611835 -33 77.25 C-33.19078125 78.40886719 -33.3815625 79.56773437 -33.578125 80.76171875 C-33.75859375 81.87675781 -33.9390625 82.99179687 -34.125 84.140625 C-34.29257813 85.16704102 -34.46015625 86.19345703 -34.6328125 87.25097656 C-35.08826291 90.19855847 -35.08826291 90.19855847 -35 94 C-34.21496094 93.855625 -33.42992187 93.71125 -32.62109375 93.5625 C-31.57050781 93.376875 -30.51992187 93.19125 -29.4375 93 C-28.40496094 92.814375 -27.37242188 92.62875 -26.30859375 92.4375 C-23 92 -23 92 -16 92 C-16.33 97.94 -16.66 103.88 -17 110 C-22.62284323 111.00007012 -28.24597373 111.99805651 -33.87011719 112.99072266 C-35.78309516 113.32901293 -37.69585796 113.66852235 -39.60839844 114.00927734 C-42.35816621 114.49898157 -45.1086791 114.98428989 -47.859375 115.46875 C-48.71368103 115.62186646 -49.56798706 115.77498291 -50.44818115 115.93273926 C-51.24870911 116.07288452 -52.04923706 116.21302979 -52.87402344 116.35742188 C-53.57573669 116.48177612 -54.27744995 116.60613037 -55.00042725 116.73425293 C-57 117 -57 117 -61 117 C-60.43280971 108.17502643 -59.46611133 99.48936461 -58.125 90.75 C-57.94646484 89.56543213 -57.76792969 88.38086426 -57.58398438 87.16040039 C-56.53100639 80.24575061 -55.39883212 73.35237752 -54.140625 66.47241211 C-53.01713883 60.27008121 -52.06917663 54.04434499 -51.125 47.8125 C-49.6867254 38.35674478 -48.20207069 28.90973604 -46.64715576 19.47250366 C-46.42455929 18.11891982 -46.20340172 16.76509855 -45.98370361 15.41104126 C-45.6767743 13.52206376 -45.36392062 11.63405173 -45.05078125 9.74609375 C-44.87200439 8.65997803 -44.69322754 7.5738623 -44.5090332 6.45483398 C-44 4 -44 4 -43 3 C-40.76924701 2.69838826 -38.52998402 2.45939934 -36.2890625 2.24609375 C-35.26490738 2.14833397 -35.26490738 2.14833397 -34.22006226 2.04859924 C-32.76589581 1.91110332 -31.31150961 1.77591549 -29.85693359 1.64282227 C-27.66821107 1.44147512 -25.48063123 1.23009533 -23.29296875 1.01757812 C-15.5176395 0.28225394 -7.81753178 -0.21686265 0 0 Z " fill="#0608F9" transform="translate(1593,596)"/>
<path d="M0 0 C-0.47429722 2.98001838 -0.95418696 5.95894287 -1.4375 8.9375 C-1.57220703 9.78763672 -1.70691406 10.63777344 -1.84570312 11.51367188 C-1.97783203 12.32255859 -2.10996094 13.13144531 -2.24609375 13.96484375 C-2.42676392 15.08814087 -2.42676392 15.08814087 -2.61108398 16.23413086 C-3 18 -3 18 -4 19 C-5.63472882 19.08700342 -7.27314055 19.10701063 -8.91015625 19.09765625 C-9.89951172 19.09443359 -10.88886719 19.09121094 -11.90820312 19.08789062 C-12.94912109 19.07951172 -13.99003906 19.07113281 -15.0625 19.0625 C-16.10728516 19.05798828 -17.15207031 19.05347656 -18.22851562 19.04882812 C-20.8190666 19.03699913 -23.40950559 19.02051689 -26 19 C-26.18175781 20.27230469 -26.18175781 20.27230469 -26.3671875 21.5703125 C-27.578125 30.046875 -28.7890625 38.5234375 -30 47 C-23.4 47 -16.8 47 -10 47 C-10.66 52.61 -11.32 58.22 -12 64 C-18.93 64 -25.86 64 -33 64 C-33.2475 66.18625 -33.495 68.3725 -33.75 70.625 C-35.30906172 84.10654535 -37.18391661 97.55120198 -39 111 C-43.69554458 112.59254338 -48.38024936 113.92872565 -53.1875 115.125 C-53.89841797 115.30675781 -54.60933594 115.48851562 -55.34179688 115.67578125 C-58.30464259 116.41718949 -60.93331131 117 -64 117 C-63.25841702 109.11062922 -61.92515362 101.3397137 -60.58877563 93.53485107 C-58.30684096 80.18616666 -56.19255648 66.83207587 -54.33325195 53.41723633 C-53.44772957 47.04924044 -52.47914485 40.70860453 -51.375 34.375 C-50.07539014 26.90893562 -49.19924734 19.42814225 -48.4296875 11.890625 C-48.06203276 8.56167845 -47.56620079 5.29903991 -47 2 C-14.69210102 -0.38776806 -14.69210102 -0.38776806 0 0 Z " fill="#0608F9" transform="translate(1149,596)"/>
<path d="M0 0 C0.16335585 5.23419357 -0.39447963 9.86306192 -1.5 14.9375 C-1.64308594 15.62134766 -1.78617187 16.30519531 -1.93359375 17.00976562 C-2.28283771 18.67449514 -2.64052946 20.33744875 -3 22 C-7.50353262 23.75747614 -11.17639811 24.19294408 -16 24 C-18.51997904 38.32984864 -20.6849676 52.67820858 -22.56494141 67.10595703 C-23.81759856 76.7096619 -25.20605036 86.28488922 -26.67529297 95.85742188 C-27.48987853 101.23246161 -28.24241408 106.61668361 -29 112 C-36.86088496 114.29275811 -44.88903365 115.07471986 -53 116 C-52.50186149 107.46325095 -50.9618305 99.22632577 -49.27496338 90.86611938 C-45.7513152 73.31414742 -43.1558352 55.69726772 -40.86645508 37.94555664 C-40.74751389 37.02909363 -40.62857269 36.11263062 -40.50602722 35.168396 C-40.28325218 33.4427766 -40.06416328 31.71667606 -39.84931946 29.99005127 C-39.11008416 24.22016831 -39.11008416 24.22016831 -38 22 C-42.29 22 -46.58 22 -51 22 C-51 15.07 -51 8.14 -51 1 C-48.82921875 1.01160156 -46.6584375 1.02320313 -44.421875 1.03515625 C-42.27701971 1.04299529 -40.13216612 1.04904434 -37.98730469 1.05493164 C-36.51724512 1.05990456 -35.04719035 1.06668527 -33.57714844 1.07543945 C-25.49779678 1.12228426 -17.5012087 1.02936424 -9.45117188 0.22265625 C-6.282343 -0.06518956 -3.17901577 -0.07225036 0 0 Z " fill="#0507F9" transform="translate(346,597)"/>
<path d="M0 0 C-1.08365243 5.42520369 -2.17055563 10.84973916 -3.26171875 16.2734375 C-4.70204684 23.44002235 -6.13270914 30.60850942 -7.55810547 37.77807617 C-7.85633792 39.27764164 -8.15484704 40.77715212 -8.45361328 42.27661133 C-13.81418483 69.03652789 -13.81418483 69.03652789 -18 96 C-13.05 96 -8.1 96 -3 96 C-2.505 104.91 -2.505 104.91 -2 114 C-3.49789063 114.03738281 -4.99578125 114.07476563 -6.5390625 114.11328125 C-16.7666964 114.42767619 -26.50352217 114.84297089 -36.453125 117.37890625 C-39 118 -39 118 -42 118 C-42.19607008 110.50718039 -41.68828682 103.42050466 -40.49609375 96.02734375 C-40.33739304 95.00160248 -40.17869232 93.97586121 -40.0151825 92.91903687 C-39.49771329 89.59047653 -38.96801073 86.26400452 -38.4375 82.9375 C-38.07423917 80.62336441 -37.71145145 78.30915451 -37.34912109 75.99487305 C-35.00635685 61.09030626 -32.59264818 46.19688454 -30.125 31.3125 C-29.98029266 30.43753876 -29.83558533 29.56257751 -29.68649292 28.66110229 C-29.27588845 26.186294 -28.86143404 23.71216724 -28.4453125 21.23828125 C-28.32790207 20.53109955 -28.21049164 19.82391785 -28.08952332 19.0953064 C-27.22853461 14.02315831 -26.15447293 9.01308754 -25 4 C-16.93634944 2.05360159 -8.32294576 0 0 0 Z " fill="#0708F9" transform="translate(1529,595)"/>
<path d="M0 0 C-0.2649665 1.73007538 -0.53746013 3.45899743 -0.8125 5.1875 C-0.96332031 6.15042969 -1.11414063 7.11335937 -1.26953125 8.10546875 C-1.86640987 11.28775745 -2.56980901 14.38708324 -3.33203125 17.53125 C-5.63018375 27.37356642 -7.20400678 37.34846236 -8.875 47.3125 C-9.22921045 49.4071653 -9.58354097 51.50181031 -9.93798828 53.59643555 C-12.21377295 67.09098994 -14.40424529 80.59718922 -16.45263672 94.12817383 C-16.63068848 95.29888428 -16.80874023 96.46959473 -16.9921875 97.67578125 C-17.14026855 98.66489502 -17.28834961 99.65400879 -17.44091797 100.6730957 C-18.19056829 105.13400615 -19.11287635 109.56438175 -20 114 C-30.89 114.99 -30.89 114.99 -42 116 C-41.3453668 110.1083012 -40.60296721 104.46811523 -39.43359375 98.69140625 C-39.11298206 97.06462548 -38.79285585 95.43774898 -38.47314453 93.81079102 C-38.22011566 92.53064621 -38.22011566 92.53064621 -37.9619751 91.22463989 C-34.06101159 71.42406097 -30.73548709 51.55458639 -27.61499023 31.61743164 C-27.454366 30.59153931 -27.29374176 29.56564697 -27.12825012 28.50866699 C-26.83106852 26.60496975 -26.53549611 24.70102018 -26.24198914 22.79675293 C-25.26600757 16.51088641 -24.16418287 10.25367464 -23 4 C-20.10555905 3.3267344 -17.20969987 2.66119596 -14.3125 2 C-13.08756836 1.71382812 -13.08756836 1.71382812 -11.83789062 1.421875 C-7.82760674 0.51266084 -4.14282748 -0.27000098 0 0 Z " fill="#090AF8" transform="translate(642,597)"/>
<path d="M0 0 C-0.57554771 7.42063271 -1.50183014 14.70266174 -2.76953125 22.03515625 C-2.94394241 23.06246353 -3.11835358 24.08977081 -3.29804993 25.14820862 C-5.55849217 38.39477877 -7.92845112 51.62263924 -10.29907227 64.84985352 C-10.89334764 68.1689827 -11.48401695 71.48873815 -12.07421875 74.80859375 C-12.34295052 76.29932655 -12.34295052 76.29932655 -12.61711121 77.82017517 C-13.39963037 82.23313076 -14.09953766 86.61515306 -14.55786133 91.07446289 C-15 95 -15 95 -16 97 C-16.46814296 100.22214023 -16.86788612 103.44469274 -17.25 106.67773438 C-17.89811739 111.89811739 -17.89811739 111.89811739 -19 113 C-20.55753051 113.22670908 -22.12377359 113.39435092 -23.69140625 113.53515625 C-24.63564453 113.62216797 -25.57988281 113.70917969 -26.55273438 113.79882812 C-27.54595703 113.88583984 -28.53917969 113.97285156 -29.5625 114.0625 C-31.05813477 114.19881836 -31.05813477 114.19881836 -32.58398438 114.33789062 C-35.05565702 114.56258814 -37.52763256 114.78310351 -40 115 C-39.32663059 106.08413679 -37.60597434 97.46913457 -35.81640625 88.72070312 C-34.61861994 82.71405286 -33.6814701 76.84682327 -33.32617188 70.72827148 C-32.97849065 67.82008456 -32.28225371 65.07590671 -31.54504395 62.24516296 C-30.5270215 58.05169141 -29.84892256 53.79525434 -29.125 49.54296875 C-28.87000732 48.06755363 -28.87000732 48.06755363 -28.60986328 46.56233215 C-28.0704323 43.43786456 -27.53507526 40.31271617 -27 37.1875 C-26.46405241 34.07315113 -25.9272589 30.95894935 -25.39013672 27.84480286 C-25.05755753 25.9148486 -24.72579284 23.98475372 -24.39501953 22.05448914 C-23.30313496 15.69555762 -22.16469519 9.34599134 -21 3 C-18.81462633 2.49078672 -16.62657569 1.99305563 -14.4375 1.5 C-12.61025391 1.08234375 -12.61025391 1.08234375 -10.74609375 0.65625 C-7.07777293 0.01362446 -3.71497397 -0.11474823 0 0 Z " fill="#0709F8" transform="translate(733,598)"/>
<path d="M0 0 C-0.67394804 6.63498247 -1.63900888 13.16827959 -2.77734375 19.73828125 C-2.94875381 20.74030075 -3.12016388 21.74232025 -3.29676819 22.77470398 C-3.84122508 25.95439595 -4.38925618 29.13345901 -4.9375 32.3125 C-5.30167886 34.43420248 -5.66561326 36.55594694 -6.02929688 38.67773438 C-6.55654258 41.75330422 -7.08392974 44.82884883 -7.6121521 47.9042511 C-8.7619111 54.59952097 -9.89682947 61.29687865 -11 68 C-11.22645976 69.3758987 -11.45294288 70.75179355 -11.67944336 72.12768555 C-11.80258408 72.87571945 -11.92572479 73.62375336 -12.05259705 74.39445496 C-12.56875604 77.52707456 -13.08645755 80.65943812 -13.60449219 83.79174805 C-13.86902727 85.39414484 -14.13269361 86.99668529 -14.39550781 88.59936523 C-17.0985873 105.07439994 -17.0985873 105.07439994 -19 113 C-21.72876308 113.33695862 -24.45793163 113.66968429 -27.1875 114 C-27.95642578 114.09539062 -28.72535156 114.19078125 -29.51757812 114.2890625 C-30.26845703 114.37929688 -31.01933594 114.46953125 -31.79296875 114.5625 C-32.4789917 114.64628906 -33.16501465 114.73007812 -33.87182617 114.81640625 C-36.256219 115.02210355 -38.60774308 115.0115971 -41 115 C-40.87799225 114.35294098 -40.7559845 113.70588196 -40.63027954 113.03921509 C-37.15228022 94.54480999 -33.89665545 76.01909414 -30.73236084 57.46899414 C-30.13256107 53.95440314 -29.53114159 50.44008947 -28.9296875 46.92578125 C-28.81194096 46.23778065 -28.69419441 45.54978004 -28.57287979 44.84093094 C-28.22313021 42.79758874 -27.87330435 40.75425962 -27.5234375 38.7109375 C-27.3543047 37.72309391 -27.3543047 37.72309391 -27.18175507 36.71529388 C-24.5536872 21.3691791 -24.5536872 21.3691791 -23.2265625 13.7890625 C-23.00822754 12.5407666 -22.78989258 11.2924707 -22.56494141 10.00634766 C-22.12003877 7.63878886 -21.62468259 5.32508734 -21 3 C-18.81462633 2.49078672 -16.62657569 1.99305563 -14.4375 1.5 C-12.61025391 1.08234375 -12.61025391 1.08234375 -10.74609375 0.65625 C-7.07777293 0.01362446 -3.71497397 -0.11474823 0 0 Z " fill="#0709F8" transform="translate(1290,598)"/>
<path d="M0 0 C2.21875 1.50390625 2.21875 1.50390625 4 4 C4.38084361 6.94479076 4.5227619 9.44174544 4.4375 12.375 C4.42283691 13.17647461 4.40817383 13.97794922 4.39306641 14.80371094 C3.93564251 29.44710271 0.24240801 45.71452299 -10.27734375 56.51171875 C-13.6862938 59.45686607 -16.64601144 60.77894064 -21.0625 61.5 C-25.06318365 60.81903257 -26.47920132 59.09698124 -29 56 C-33.21790371 43.34628886 -27.76044208 27.75524224 -22.0625 16.3125 C-17.21685531 6.62724354 -11.81263007 -1.31251445 0 0 Z " fill="#F7F7FD" transform="translate(1066,627)"/>
<path d="M0 0 C2.67431489 1.81163267 2.95920359 2.87761077 4 6 C5.04894122 22.95381736 1.84432388 41.23197148 -8.88671875 54.8125 C-12.87544659 58.94131255 -16.63903692 60.63677491 -22.25 61.5 C-25.71478778 60.87003858 -26.87151322 59.75914953 -29 57 C-33.4620113 43.61396611 -28.12388326 27.60887749 -22.25 15.4375 C-17.48586548 6.03211091 -11.35002527 -1.32572017 0 0 Z " fill="#F7F7FD" transform="translate(1336,627)"/>
<path d="M0 0 C2.2109375 1.53515625 2.2109375 1.53515625 4 4 C4.35184273 6.84157729 4.47572865 9.23682905 4.375 12.0625 C4.35848389 12.82473877 4.34196777 13.58697754 4.32495117 14.37231445 C3.89491345 28.33893483 0.66269145 44.35798172 -9 55 C-12.80845261 58.29472249 -16.29304056 60.63891243 -21.25 61.6875 C-25.01566836 60.74608291 -26.57959077 58.97364562 -29 56 C-32.68510123 44.9446963 -28.53742573 30.50029701 -24.125 20.0625 C-23.44155235 18.69560469 -22.73215748 17.34143539 -22 16 C-21.56945312 15.15953125 -21.13890625 14.3190625 -20.6953125 13.453125 C-16.00746453 4.88830007 -10.40213205 -1.73368867 0 0 Z " fill="#F7F7FD" transform="translate(779,627)"/>
<path d="M0 0 C2.701875 -0.061875 5.40375 -0.12375 8.1875 -0.1875 C9.02949951 -0.21481201 9.87149902 -0.24212402 10.73901367 -0.27026367 C15.35197449 -0.32125682 18.23969258 0.05087407 22 3 C22.5878125 3.45632813 23.175625 3.91265625 23.78125 4.3828125 C25.92053032 7.22147292 25.52091857 10.12083033 25.42578125 13.55078125 C24.77834395 17.27503066 22.9955552 18.84041369 20 21 C17.29283758 21.90238747 15.76223232 22.11851302 12.98828125 22.09765625 C11.96408081 22.09390991 11.96408081 22.09390991 10.91918945 22.09008789 C10.05898193 22.08098389 9.19877441 22.07187988 8.3125 22.0625 C4.1978125 22.0315625 4.1978125 22.0315625 0 22 C0 14.74 0 7.48 0 0 Z " fill="#EEEEFB" transform="translate(1682,286)"/>
<path d="M0 0 C0.66 0 1.32 0 2 0 C2.24990587 13.00087232 1.95599416 25.9032357 1.0625 38.875 C0.97564941 40.15850342 0.88879883 41.44200684 0.79931641 42.7644043 C0.13181701 51.86818299 0.13181701 51.86818299 -1 53 C-2.85287502 53.07226502 -4.70833878 53.0838122 -6.5625 53.0625 C-7.57441406 53.05347656 -8.58632812 53.04445313 -9.62890625 53.03515625 C-10.41136719 53.02355469 -11.19382812 53.01195312 -12 53 C-10.75158867 41.91336204 -8.27613596 31.27687359 -5.59521484 20.46606445 C-5.01055178 18.04371762 -4.47187993 15.61525084 -3.9453125 13.1796875 C-3.2541427 10.02805055 -2.4400955 6.98754621 -1.375 3.9375 C-1.11460938 3.18339844 -0.85421875 2.42929687 -0.5859375 1.65234375 C-0.39257812 1.10707031 -0.19921875 0.56179688 0 0 Z " fill="#E5E7FD" transform="translate(1462,617)"/>
<path d="M0 0 C10.69312977 0.41526718 10.69312977 0.41526718 15 5 C16.76712651 8.53425302 16.63733622 12.15074165 16 16 C13.12632111 21.8382251 8.2454009 24.18278689 2.3671875 26.37109375 C0 27 0 27 -4 27 C-2.07289294 7.99544419 -2.07289294 7.99544419 0 0 Z " fill="#F0F2FD" transform="translate(248,656)"/>
<path d="M0 0 C13.81776765 -0.55353075 13.81776765 -0.55353075 19 3 C18.87646359 8.92974757 17.08250338 11.79881816 13.03125 16.07421875 C8.03171631 20.81416127 3.64312907 23.98350408 -3 26 C-2.45520982 17.24034738 -1.45892001 8.65437017 0 0 Z " fill="#F4F4FD" transform="translate(516,618)"/>
<path d="M0 0 C12.66970387 -0.55353075 12.66970387 -0.55353075 18 3 C18.33011145 6.6050266 18.33837736 8.47523511 16.34765625 11.5625 C4.38461538 24.32307692 4.38461538 24.32307692 -4 26 C-3.46588214 17.14101063 -1.85710087 8.65479083 0 0 Z " fill="#F4F4FD" transform="translate(984,618)"/>
<path d="M0 0 C3.89535695 1.26335901 6.08634791 2.30677335 8 6 C9.75939544 17.80579838 7.66338125 27.09973233 1 37 C-1.046875 39.38671875 -1.046875 39.38671875 -3 41 C-3.99 41 -4.98 41 -6 41 C-6.23341612 35.21906079 -5.35204787 30.07499504 -4.125 24.4375 C-2.42276196 16.31659367 -1.03632756 8.2360769 0 0 Z " fill="#EAECFD" transform="translate(928,613)"/>
<path d="M0 0 C4.49885443 0.19602852 8.07043464 0.48779052 12.0625 2.6875 C14 5 14 5 14.75 7.875 C13.50055431 13.08102369 9.50639775 15.42033755 5.140625 18.171875 C2.35702054 19.24874388 -0.04324099 19.13439814 -3 19 C-2.68798326 16.95825942 -2.37536431 14.91661087 -2.0625 12.875 C-1.88847656 11.73804688 -1.71445313 10.60109375 -1.53515625 9.4296875 C-1.04410734 6.28267331 -0.52981281 3.14069217 0 0 Z " fill="#F3F4FE" transform="translate(254,617)"/>
<path d="M0 0 C0.33 0 0.66 0 1 0 C1.18663399 5.13243482 0.79863055 9.50254969 -0.421875 14.48046875 C-1.52180641 19.27408873 -2.22774253 24.14463651 -3 29 C-3.33 27.68 -3.66 26.36 -4 25 C-5.32 25.33 -6.64 25.66 -8 26 C-8.76600016 23.70199953 -9.04879175 22.24047362 -8.5625 19.84375 C-7.86276568 16.30620426 -7.6471713 12.77941001 -7.4375 9.1875 C-7.39431641 8.49462891 -7.35113281 7.80175781 -7.30664062 7.08789062 C-7.20138547 5.39211314 -7.10027137 3.69607948 -7 2 C-6.01 2.66 -5.02 3.32 -4 4 C-1.84725052 3.69159401 -1.84725052 3.69159401 0 3 C0 2.01 0 1.02 0 0 Z " fill="#D9DBFC" transform="translate(962,616)"/>
<path d="M0 0 C0.66 0 1.32 0 2 0 C2.11145896 13.04584256 2.05736038 25.99069108 1 39 C0.67 39 0.34 39 0 39 C0 30.42 0 21.84 0 13 C-0.99 13 -1.98 13 -3 13 C-3.33 13.99 -3.66 14.98 -4 16 C-3.39891424 10.34979382 -1.92471317 5.33835539 0 0 Z " fill="#BDC0FC" transform="translate(1462,617)"/>
<path d="M0 0 C1.98 0.495 1.98 0.495 4 1 C3.34 2.65 2.68 4.3 2 6 C7.28 6 12.56 6 18 6 C18.33 6.66 18.66 7.32 19 8 C15.42306178 9.19231274 12.15817447 9.1461202 8.4375 9.125 C7.75236328 9.12886719 7.06722656 9.13273438 6.36132812 9.13671875 C1.2533867 9.12669335 1.2533867 9.12669335 -1 8 C-0.67 5.36 -0.34 2.72 0 0 Z " fill="#1515F4" transform="translate(219,705)"/>
<path d="M0 0 C0.33 0 0.66 0 1 0 C1.33 4.29 1.66 8.58 2 13 C2.66 13 3.32 13 4 13 C3.34 16.96 2.68 20.92 2 25 C1.01 25 0.02 25 -1 25 C-1.11039334 16.59784035 -0.95458649 8.35263176 0 0 Z " fill="#EFF1FC" transform="translate(575,657)"/>
<path d="M0 0 C-4.1915409 4.1915409 -11.22809162 5.76302338 -17.015625 6.2578125 C-19.35780212 6.25112057 -21.66569792 6.18591786 -24 6 C-24 5.34 -24 4.68 -24 4 C-20.37 4 -16.74 4 -13 4 C-13 3.34 -13 2.68 -13 2 C-11.5882217 1.46605821 -10.17029756 0.94834896 -8.75 0.4375 C-7.96109375 0.14746094 -7.1721875 -0.14257812 -6.359375 -0.44140625 C-3.80896548 -1.04522837 -2.44677771 -0.8473932 0 0 Z " fill="#2121F9" transform="translate(408,708)"/>
<path d="M0 0 C7.26 0 14.52 0 22 0 C21.67 4.29 21.34 8.58 21 13 C19 10 19 10 19 1 C13.06 1 7.12 1 1 1 C1 4.3 1 7.6 1 11 C0.67 11 0.34 11 0 11 C0 7.37 0 3.74 0 0 Z " fill="#353FF8" transform="translate(559,596)"/>
<path d="M0 0 C0.185625 0.9590625 0.185625 0.9590625 0.375 1.9375 C0.684375 2.9584375 0.684375 2.9584375 1 4 C1.66 4.33 2.32 4.66 3 5 C2.67 6.98 2.34 8.96 2 11 C2.99 11.66 3.98 12.32 5 13 C4.01 13 3.02 13 2 13 C2 13.66 2 14.32 2 15 C0.68 15 -0.64 15 -2 15 C-1.85816304 13.24967156 -1.71136571 11.49974466 -1.5625 9.75 C-1.48128906 8.77546875 -1.40007812 7.8009375 -1.31640625 6.796875 C-1.04925416 4.43538247 -0.64628032 2.28098935 0 0 Z " fill="#1B1CF6" transform="translate(295,698)"/>
<path d="M0 0 C1.32 0.33 2.64 0.66 4 1 C3.6875 2.9375 3.6875 2.9375 3 5 C2.01 5.33 1.02 5.66 0 6 C0.02320313 6.78503906 0.04640625 7.57007813 0.0703125 8.37890625 C0.17284781 14.34792603 0.04580539 19.37403518 -2 25 C-2.33 25 -2.66 25 -3 25 C-3.16032995 19.12123504 -2.6092534 13.76611905 -1.5 8 C-1.35691406 7.22527344 -1.21382812 6.45054687 -1.06640625 5.65234375 C-0.71727671 3.76704421 -0.35954684 1.88334061 0 0 Z " fill="#C3C9FD" transform="translate(928,613)"/>
<path d="M0 0 C0.66 0.33 1.32 0.66 2 1 C0.49364535 5.21779303 -2.24012422 6.7747674 -6 9 C-6.99 9.33 -7.98 9.66 -9 10 C-9 10.66 -9 11.32 -9 12 C-10.32 12.33 -11.64 12.66 -13 13 C-13 12.01 -13 11.02 -13 10 C-11.171875 8.53515625 -11.171875 8.53515625 -8.75 7.0625 C-5.43467073 4.96888262 -2.61839965 2.95993004 0 0 Z " fill="#0F0EE0" transform="translate(1739,358)"/>
<path d="M0 0 C0.66 0 1.32 0 2 0 C2.33 3.96 2.66 7.92 3 12 C0.525 13.485 0.525 13.485 -2 15 C-1.47462276 9.9697924 -0.89405214 4.98114761 0 0 Z " fill="#BDC2FD" transform="translate(1383,651)"/>
<path d="M0 0 C0.97453125 0.00451172 1.9490625 0.00902344 2.953125 0.01367188 C5.34381434 0.02539094 7.7343744 0.04179781 10.125 0.0625 C9.795 2.3725 9.465 4.6825 9.125 7.0625 C8.795 7.0625 8.465 7.0625 8.125 7.0625 C8.125 5.4125 8.125 3.7625 8.125 2.0625 C-0.125 2.0625 -8.375 2.0625 -16.875 2.0625 C-16.875 1.7325 -16.875 1.4025 -16.875 1.0625 C-11.23973035 -0.14234722 -5.72963885 -0.0504643 0 0 Z " fill="#4E56F7" transform="translate(218.875,595.9375)"/>
<path d="M0 0 C3.63 0 7.26 0 11 0 C11.33 0.66 11.66 1.32 12 2 C10 4 10 4 7 6 C5.83054208 5.19152271 4.66449539 4.37810888 3.5 3.5625 C2.8503125 3.11003906 2.200625 2.65757813 1.53125 2.19140625 C1.0259375 1.79824219 0.520625 1.40507813 0 1 C0 0.67 0 0.34 0 0 Z " fill="#FA0C0C" transform="translate(285,81)"/>
<path d="M0 0 C0.66 0 1.32 0 2 0 C2.33 2.64 2.66 5.28 3 8 C2.01 8.495 2.01 8.495 1 9 C0.26924352 11.3140622 -0.40138258 13.64828869 -1 16 C-1.33 16 -1.66 16 -2 16 C-1.85833643 14.08302063 -1.71150416 12.16642277 -1.5625 10.25 C-1.48128906 9.18265625 -1.40007813 8.1153125 -1.31640625 7.015625 C-1.05909227 4.56320038 -0.68187782 2.36078709 0 0 Z " fill="#D0D6FD" transform="translate(976,663)"/>
<path d="M0 0 C0.33 0 0.66 0 1 0 C1.33 1.65 1.66 3.3 2 5 C4.64 5 7.28 5 10 5 C7.75112431 8.37331354 6.7612037 8.8358179 3 10 C1.68 10 0.36 10 -1 10 C-0.67 6.7 -0.34 3.4 0 0 Z " fill="#383AFA" transform="translate(891,704)"/>
<path d="M0 0 C0.99 0.33 1.98 0.66 3 1 C-2.94 6.445 -2.94 6.445 -9 12 C-9.33 10.68 -9.66 9.36 -10 8 C-5.375 4 -5.375 4 -2 4 C-2 3.01 -2 2.02 -2 1 C-1.34 0.67 -0.68 0.34 0 0 Z " fill="#2120ED" transform="translate(1688,138)"/>
<path d="M0 0 C0.70703125 1.64453125 0.70703125 1.64453125 1 4 C-0.36328125 6.76171875 -0.36328125 6.76171875 -2.3125 9.6875 C-2.94800781 10.66074219 -3.58351563 11.63398437 -4.23828125 12.63671875 C-6 15 -6 15 -8 16 C-6.42986223 10.03347646 -3.24970218 5.17090975 0 0 Z " fill="#CFD3FE" transform="translate(676,626)"/>
<path d="M0 0 C1.33597652 0.80814651 2.668725 1.62163181 4 2.4375 C5.11375 3.11619141 5.11375 3.11619141 6.25 3.80859375 C6.8275 4.20175781 7.405 4.59492187 8 5 C8 5.33 8 5.66 8 6 C10.64 6.33 13.28 6.66 16 7 C16 7.33 16 7.66 16 8 C7.5309417 8.92017937 7.5309417 8.92017937 3.77734375 6.6640625 C2.08109421 5.18027954 0.50592567 3.67546697 -1 2 C-0.67 1.34 -0.34 0.68 0 0 Z " fill="#3837F9" transform="translate(646,706)"/>
<path d="M0 0 C0.66 0 1.32 0 2 0 C2.99 1.98 3.98 3.96 5 6 C2.09399739 7.25664978 0.20395416 8 -3 8 C-1.125 2.25 -1.125 2.25 0 0 Z " fill="#282AFC" transform="translate(1198,676)"/>
<path d="M0 0 C1.8587516 3.1241325 2.20151847 5.09317534 1.75 8.6875 C1.61851563 9.86892578 1.61851563 9.86892578 1.484375 11.07421875 C1.32453125 11.70972656 1.1646875 12.34523438 1 13 C0.01 13.495 0.01 13.495 -1 14 C-1.33 10.37 -1.66 6.74 -2 3 C-1.34 3 -0.68 3 0 3 C0 2.01 0 1.02 0 0 Z " fill="#DADBFC" transform="translate(1404,638)"/>
<path d="M0 0 C1.16402344 -0.02126953 1.16402344 -0.02126953 2.3515625 -0.04296875 C4.375 0.1875 4.375 0.1875 6.375 2.1875 C4.43903108 2.40961116 2.50110672 2.61472992 0.5625 2.8125 C-1.05591797 2.98652344 -1.05591797 2.98652344 -2.70703125 3.1640625 C-5.625 3.1875 -5.625 3.1875 -8.625 1.1875 C-5.6969073 0.3518571 -3.04323857 0.02544514 0 0 Z M-7.625 3.1875 C-5.625 4.1875 -5.625 4.1875 -5.625 4.1875 Z " fill="#2A32FA" transform="translate(1238.625,595.8125)"/>
<path d="M0 0 C0.33 0 0.66 0 1 0 C1.06058594 0.61488281 1.12117188 1.22976563 1.18359375 1.86328125 C1.26738281 2.67152344 1.35117188 3.47976563 1.4375 4.3125 C1.51871094 5.11300781 1.59992188 5.91351562 1.68359375 6.73828125 C1.95265693 9.16087179 1.95265693 9.16087179 3 12 C2.01 12.33 1.02 12.66 0 13 C0 14.65 0 16.3 0 18 C-1.65 18.33 -3.3 18.66 -5 19 C-4.01 18.34 -3.02 17.68 -2 17 C-1.4547378 14.07832766 -1.07321151 11.32175764 -0.8125 8.375 C-0.73064453 7.57320312 -0.64878906 6.77140625 -0.56445312 5.9453125 C-0.36403849 3.96474429 -0.1804193 1.98248968 0 0 Z " fill="#C6CAFD" transform="translate(1414,688)"/>
<path d="M0 0 C0.33 0 0.66 0 1 0 C1.33 4.29 1.66 8.58 2 13 C2.66 13 3.32 13 4 13 C3.67 13.99 3.34 14.98 3 16 C2.01 15.67 1.02 15.34 0 15 C0 16.65 0 18.3 0 20 C-0.33 20 -0.66 20 -1 20 C-1.11044961 13.26257354 -0.70132913 6.70019789 0 0 Z " fill="#ABB4FD" transform="translate(575,657)"/>
<path d="M0 0 C0 0.99 0 1.98 0 3 C-6.27 3 -12.54 3 -19 3 C-19 2.67 -19 2.34 -19 2 C-16.39610703 1.66440045 -13.7919239 1.33143142 -11.1875 1 C-10.44951172 0.90460937 -9.71152344 0.80921875 -8.95117188 0.7109375 C-5.94569605 0.33015323 -3.03285559 0 0 0 Z " fill="#191BF2" transform="translate(1135,657)"/>
<path d="M0 0 C-0.66 3.96 -1.32 7.92 -2 12 C-4.08954032 7.82091936 -4.16552619 7.19589427 -3 3 C-5.97 2.505 -5.97 2.505 -9 2 C-5.53785351 -0.05164237 -4.40610765 0 0 0 Z " fill="#5057FB" transform="translate(642,597)"/>
<path d="M0 0 C0.97582031 0.00902344 1.95164062 0.01804687 2.95703125 0.02734375 C3.69308594 0.03894531 4.42914062 0.05054688 5.1875 0.0625 C3.8675 0.3925 2.5475 0.7225 1.1875 1.0625 C1.1875 1.7225 1.1875 2.3825 1.1875 3.0625 C-2.97388263 3.14409574 -6.7597484 3.04498524 -10.8125 2.0625 C-10.8125 1.7325 -10.8125 1.4025 -10.8125 1.0625 C-7.13862505 0.20951624 -3.7677607 -0.04539471 0 0 Z " fill="#EEEEFA" transform="translate(1677.8125,265.9375)"/>
<path d="M0 0 C1.97450647 7.34070551 0.63952514 13.07124649 -2 20 C-3.31052767 15.69577494 -2.45785552 12.0629466 -1.5625 7.75 C-1.41490234 7.00492188 -1.26730469 6.25984375 -1.11523438 5.4921875 C-0.7511306 3.65992335 -0.37658591 1.82973947 0 0 Z " fill="#4B4FFA" transform="translate(1414,596)"/>
<path d="M0 0 C3.94139078 1.66751148 6.7892812 4.22710649 10 7 C9.67 8.32 9.34 9.64 9 11 C7.33333333 9.33333333 5.66666667 7.66666667 4 6 C3.236875 5.278125 2.47375 4.55625 1.6875 3.8125 C0 2 0 2 0 0 Z " fill="#1413E0" transform="translate(1737,263)"/>
<path d="M0 0 C0.66 0 1.32 0 2 0 C1 3 1 3 -0.6875 4.1875 C-3.54969093 5.19313465 -5.98827908 5.13689641 -9 5 C-9 4.01 -9 3.02 -9 2 C-6.03 2 -3.06 2 0 2 C0 1.34 0 0.68 0 0 Z " fill="#DADCFB" transform="translate(764,683)"/>
<path d="M0 0 C0.33 0 0.66 0 1 0 C1 3.3 1 6.6 1 10 C1.66 10.33 2.32 10.66 3 11 C2.690625 11.53625 2.38125 12.0725 2.0625 12.625 C0.82172561 15.3984957 0.4090325 18.00042837 0 21 C-0.33 21 -0.66 21 -1 21 C-0.67 14.07 -0.34 7.14 0 0 Z " fill="#B7BCFE" transform="translate(577,634)"/>
<path d="M0 0 C1.32 0.33 2.64 0.66 4 1 C-2.63358779 6.87977099 -2.63358779 6.87977099 -6 7 C-6.66 6.34 -7.32 5.68 -8 5 C-5.36 3.68 -2.72 2.36 0 1 C0 0.67 0 0.34 0 0 Z " fill="#191AED" transform="translate(1720,312)"/>
<path d="M0 0 C0.66 0.33 1.32 0.66 2 1 C-1.57729872 5.66132863 -5.10867301 8.73911534 -10 12 C-10.66 11.67 -11.32 11.34 -12 11 C-8.04 7.37 -4.08 3.74 0 0 Z " fill="#DBDCFD" transform="translate(1543,266)"/>
<path d="M0 0 C1.485 0.99 1.485 0.99 3 2 C3.04165763 3.99956611 3.04165763 6.00043389 3 8 C3.66 8.66 4.32 9.32 5 10 C3.35 10.33 1.7 10.66 0 11 C0 7.37 0 3.74 0 0 Z " fill="#2022F9" transform="translate(1487,702)"/>
<path d="M0 0 C0.99 0.66 1.98 1.32 3 2 C2.67 3.32 2.34 4.64 2 6 C0.02 6 -1.96 6 -4 6 C-1.125 1.125 -1.125 1.125 0 0 Z " fill="#1011F0" transform="translate(1007,697)"/>
<path d="M0 0 C0.33 0 0.66 0 1 0 C1.08097324 2.27024968 1.13917704 4.54132075 1.1875 6.8125 C1.22230469 8.07707031 1.25710938 9.34164062 1.29296875 10.64453125 C1 14 1 14 -2 17 C-1.34 11.39 -0.68 5.78 0 0 Z " fill="#B1B9FC" transform="translate(631,651)"/>
<path d="M0 0 C3.80635497 3.20760251 7.54563567 6.40746109 11 10 C7 10 7 10 4.375 7.625 C3.59125 6.75875 2.8075 5.8925 2 5 C1.34 4.34 0.68 3.68 0 3 C0 2.01 0 1.02 0 0 Z " fill="#1312EB" transform="translate(1655,440)"/>
<path d="M0 0 C0.33 0 0.66 0 1 0 C1 1.65 1 3.3 1 5 C1.598125 5.12375 2.19625 5.2475 2.8125 5.375 C5 6 5 6 8 8 C5.03 8 2.06 8 -1 8 C-0.67 5.36 -0.34 2.72 0 0 Z " fill="#2D30F1" transform="translate(1419,704)"/>
<path d="M0 0 C0.66 0.66 1.32 1.32 2 2 C-1.74525799 5.74525799 -5.98270909 5.68909949 -11 6 C-10.41734375 5.71382812 -9.8346875 5.42765625 -9.234375 5.1328125 C-7.20088696 4.10184829 -5.22437908 3.01406485 -3.25 1.875 C-2.1775 1.25625 -1.105 0.6375 0 0 Z " fill="#E9EAFC" transform="translate(833,682)"/>
<path d="M0 0 C0 3 0 3 -1.42578125 4.640625 C-2.04839844 5.17171875 -2.67101563 5.7028125 -3.3125 6.25 C-4.23482422 7.06210937 -4.23482422 7.06210937 -5.17578125 7.890625 C-5.77777344 8.25671875 -6.37976562 8.6228125 -7 9 C-7.99 8.67 -8.98 8.34 -10 8 C-6.7 5.36 -3.4 2.72 0 0 Z " fill="#1B1DFB" transform="translate(1216,604)"/>
<path d="M0 0 C3.80635497 3.20760251 7.54563567 6.40746109 11 10 C6.68381834 10 5.07210341 7.86729652 2 5 C2 4.34 2 3.68 2 3 C1.34 3 0.68 3 0 3 C0 2.01 0 1.02 0 0 Z " fill="#1111EC" transform="translate(1580,372)"/>
<path d="M0 0 C2 2 2 2 2.1875 4.5625 C2 7 2 7 1 8 C0.76712992 9.68183948 0.58735834 11.3712416 0.4375 13.0625 C0.35371094 13.98160156 0.26992187 14.90070313 0.18359375 15.84765625 C0.12300781 16.55792969 0.06242187 17.26820313 0 18 C-0.33 18 -0.66 18 -1 18 C-1.18451025 5.33029613 -1.18451025 5.33029613 0 0 Z " fill="#BCBFFA" transform="translate(1631,300)"/>
<path d="M0 0 C-2 3 -2 3 -4.1640625 3.51171875 C-5.38222656 3.59873047 -5.38222656 3.59873047 -6.625 3.6875 C-7.44226562 3.75324219 -8.25953125 3.81898438 -9.1015625 3.88671875 C-9.72804688 3.92410156 -10.35453125 3.96148438 -11 4 C-11 3.34 -11 2.68 -11 2 C-7.17010894 0.19769832 -4.21878192 -0.19622241 0 0 Z " fill="#1212FA" transform="translate(1469,709)"/>
<path d="M0 0 C-3.90028225 2.60018816 -7.47434569 2.15085514 -12 2 C-11.67 2.99 -11.34 3.98 -11 5 C-11.99 5.99 -12.98 6.98 -14 8 C-13.67 5.69 -13.34 3.38 -13 1 C-11.20994059 0.63779734 -9.41787943 0.28547531 -7.625 -0.0625 C-6.12839844 -0.35833984 -6.12839844 -0.35833984 -4.6015625 -0.66015625 C-2 -1 -2 -1 0 0 Z " fill="#A6ABFC" transform="translate(932,670)"/>
<path d="M0 0 C0.33 0 0.66 0 1 0 C1.75540408 4.2806231 2.35628667 7.81811611 1 12 C0.01 13.32 -0.98 14.64 -2 16 C-1.34 10.72 -0.68 5.44 0 0 Z " fill="#B8BBFE" transform="translate(1422,639)"/>
<path d="M0 0 C0.66 0.33 1.32 0.66 2 1 C-3.53846154 6.84615385 -3.53846154 6.84615385 -7 8 C-7.99 7.67 -8.98 7.34 -10 7 C-6.7 4.69 -3.4 2.38 0 0 Z " fill="#1F1FE7" transform="translate(1650,235)"/>
<path d="M0 0 C1.00109515 3.31070838 1.10356134 6.30084769 1.0625 9.75 C1.05347656 10.73484375 1.04445313 11.7196875 1.03515625 12.734375 C1.02355469 13.48203125 1.01195312 14.2296875 1 15 C0.01 15.33 -0.98 15.66 -2 16 C-1.85936865 13.70800823 -1.71234057 11.41640814 -1.5625 9.125 C-1.48128906 7.84882812 -1.40007813 6.57265625 -1.31640625 5.2578125 C-1 2 -1 2 0 0 Z " fill="#4243F7" transform="translate(701,664)"/>
<path d="M0 0 C0.66 0.99 1.32 1.98 2 3 C1.01 4.485 1.01 4.485 0 6 C-0.4603764 9.19806665 -0.4603764 9.19806665 -0.625 12.6875 C-0.69976562 13.86699219 -0.77453125 15.04648437 -0.8515625 16.26171875 C-0.92503906 17.61716797 -0.92503906 17.61716797 -1 19 C-1.33 19 -1.66 19 -2 19 C-2.05428973 16.77110504 -2.09292338 14.54182529 -2.125 12.3125 C-2.15980469 10.45044922 -2.15980469 10.45044922 -2.1953125 8.55078125 C-2.01032021 5.18762143 -1.45767895 3.0014413 0 0 Z " fill="#3F3FF8" transform="translate(377,623)"/>
<path d="M0 0 C1.20220203 3.53094302 0.79532349 6.12898982 0.0625 9.75 C-0.13214844 10.73484375 -0.32679687 11.7196875 -0.52734375 12.734375 C-0.68332031 13.48203125 -0.83929687 14.2296875 -1 15 C-1.33 15 -1.66 15 -2 15 C-2 10.71 -2 6.42 -2 2 C-1.34 2 -0.68 2 0 2 C0 1.34 0 0.68 0 0 Z " fill="#C5C6FB" transform="translate(1266,614)"/>
<path d="M0 0 C3.465 1.98 3.465 1.98 7 4 C7 4.33 7 4.66 7 5 C4.69 5 2.38 5 0 5 C-0.5625 3.0625 -0.5625 3.0625 -1 1 C-0.67 0.67 -0.34 0.34 0 0 Z " fill="#FA1312" transform="translate(709,520)"/>
<path d="M0 0 C0.66 0.33 1.32 0.66 2 1 C0.35 2.65 -1.3 4.3 -3 6 C-3.66 5.67 -4.32 5.34 -5 5 C-3.35 3.35 -1.7 1.7 0 0 Z M-7 6 C-6.34 6.33 -5.68 6.66 -5 7 C-5.99 7.99 -6.98 8.98 -8 10 C-8.66 9.67 -9.32 9.34 -10 9 C-9.01 8.01 -8.02 7.02 -7 6 Z " fill="#E6E6FD" transform="translate(1642,180)"/>
<path d="M0 0 C1.485 0.99 1.485 0.99 3 2 C3.40843923 4.71203652 3.13336867 7.2437142 3 10 C2.01 10 1.02 10 0 10 C-0.19412181 8.52168779 -0.38012131 7.04230684 -0.5625 5.5625 C-0.66691406 4.73878906 -0.77132813 3.91507812 -0.87890625 3.06640625 C-0.91886719 2.38449219 -0.95882813 1.70257813 -1 1 C-0.67 0.67 -0.34 0.34 0 0 Z " fill="#1F20E2" transform="translate(1707,290)"/>
<path d="M0 0 C0.33 0 0.66 0 1 0 C2.38766322 6.05525768 1.49118146 9.32010626 -1 15 C-2.20220203 11.46905698 -1.79532349 8.87101018 -1.0625 5.25 C-0.86785156 4.26515625 -0.67320312 3.2803125 -0.47265625 2.265625 C-0.31667969 1.51796875 -0.16070313 0.7703125 0 0 Z " fill="#9FA3FD" transform="translate(628,669)"/>
<path d="M0 0 C0.66 0.33 1.32 0.66 2 1 C1.67 4.63 1.34 8.26 1 12 C0.67 12 0.34 12 0 12 C-0.19401633 10.18818595 -0.38004375 8.37551468 -0.5625 6.5625 C-0.66691406 5.55316406 -0.77132813 4.54382813 -0.87890625 3.50390625 C-0.91886719 2.67761719 -0.95882813 1.85132813 -1 1 C-0.67 0.67 -0.34 0.34 0 0 Z " fill="#1E23FC" transform="translate(1418,653)"/>
<path d="M0 0 C0.33 0 0.66 0 1 0 C1.83383546 3.98388054 2.26862568 7.08840415 1 11 C0.01 11.99 -0.98 12.98 -2 14 C-1.34 9.38 -0.68 4.76 0 0 Z " fill="#BABDFD" transform="translate(345,604)"/>
<path d="M0 0 C-5.75 4 -5.75 4 -8 4 C-8 2.68 -8 1.36 -8 0 C-4.94736336 -0.98120464 -3.05263664 -0.98120464 0 0 Z " fill="#2B2FFB" transform="translate(627,601)"/>
<path d="M0 0 C0.33 0.99 0.66 1.98 1 3 C0.01 3.33 -0.98 3.66 -2 4 C-2 4.66 -2 5.32 -2 6 C-3.32 6.33 -4.64 6.66 -6 7 C-6 6.01 -6 5.02 -6 4 C-3 1.8125 -3 1.8125 0 0 Z " fill="#1B1BE9" transform="translate(1732,364)"/>
<path d="M0 0 C-2.62198774 2.15377564 -4.64404172 3.40072174 -8 4 C-8.33 3.01 -8.66 2.02 -9 1 C-3.375 -1.125 -3.375 -1.125 0 0 Z " fill="#0F10F8" transform="translate(840,708)"/>
<path d="M0 0 C0.33 0 0.66 0 1 0 C0.67 4.29 0.34 8.58 0 13 C-1.89837438 9.20325123 -2.40095087 8.00950873 -2 4 C-1 1.6875 -1 1.6875 0 0 Z " fill="#DCDCFD" transform="translate(1533,693)"/>
<path d="M0 0 C-0.33 1.32 -0.66 2.64 -1 4 C-1.66 3.34 -2.32 2.68 -3 2 C-5.20250992 1.53993654 -5.20250992 1.53993654 -7.625 1.375 C-8.85089844 1.26285156 -8.85089844 1.26285156 -10.1015625 1.1484375 C-10.72804688 1.09945313 -11.35453125 1.05046875 -12 1 C-12 0.67 -12 0.34 -12 0 C-10.56359829 -0.19573608 -9.12580496 -0.38127816 -7.6875 -0.5625 C-6.88699219 -0.66691406 -6.08648438 -0.77132813 -5.26171875 -0.87890625 C-3 -1 -3 -1 0 0 Z " fill="#4745EB" transform="translate(1694,323)"/>
<path d="M0 0 C0.99 0.33 1.98 0.66 3 1 C1.35 2.65 -0.3 4.3 -2 6 C-2.66 5.34 -3.32 4.68 -4 4 C-2.68 2.68 -1.36 1.36 0 0 Z " fill="#1112EA" transform="translate(1520,283)"/>
<path d="M0 0 C1.32 0.33 2.64 0.66 4 1 C2.37660195 2.70884005 0.70680947 4.37446717 -1 6 C-1.66 6 -2.32 6 -3 6 C-3 5.01 -3 4.02 -3 3 C-2.34 3 -1.68 3 -1 3 C-0.67 2.01 -0.34 1.02 0 0 Z " fill="#191AEC" transform="translate(1734,97)"/>
<path d="M0 0 C0.99 0.33 1.98 0.66 3 1 C-0.465 3.97 -0.465 3.97 -4 7 C-4 4 -4 4 -2 1.8125 C-1.34 1.214375 -0.68 0.61625 0 0 Z " fill="#1818ED" transform="translate(1744,89)"/>
<path d="M0 0 C0.33 0 0.66 0 1 0 C1.125 4.75 1.125 4.75 0 7 C-2.64 6.67 -5.28 6.34 -8 6 C-6 5 -4 4 -2 3 C-1.34 3.33 -0.68 3.66 0 4 C0 2.68 0 1.36 0 0 Z " fill="#1215F6" transform="translate(315,703)"/>
<path d="M0 0 C0.33 0 0.66 0 1 0 C1.08131463 1.43655854 1.13933559 2.8744483 1.1875 4.3125 C1.23970703 5.51326172 1.23970703 5.51326172 1.29296875 6.73828125 C0.93801608 9.47851584 0.10633718 10.29171079 -2 12 C-1.85831863 10.56208484 -1.71148957 9.1246763 -1.5625 7.6875 C-1.48128906 6.88699219 -1.40007812 6.08648438 -1.31640625 5.26171875 C-1 3 -1 3 0 0 Z " fill="#C1C7FD" transform="translate(1357,647)"/>
<path d="M0 0 C0.33 0 0.66 0 1 0 C1.24954005 1.43410368 1.47392642 2.87260072 1.6875 4.3125 C1.87892578 5.51326172 1.87892578 5.51326172 2.07421875 6.73828125 C2 9 2 9 -1 12 C-0.67 8.04 -0.34 4.08 0 0 Z " fill="#2D31F7" transform="translate(231,628)"/>
<path d="M0 0 C2.31 1.65 4.62 3.3 7 5 C6.34 5.66 5.68 6.32 5 7 C4.34 6.67 3.68 6.34 3 6 C3 5.34 3 4.68 3 4 C1.35 3.67 -0.3 3.34 -2 3 C-1.34 2.01 -0.68 1.02 0 0 Z " fill="#0A0BE7" transform="translate(1627,415)"/>
<path d="M0 0 C1.12588014 0.95729916 2.2506715 1.91587895 3.375 2.875 C4.00148438 3.40867187 4.62796875 3.94234375 5.2734375 4.4921875 C6.55836651 5.61432007 7.79371975 6.79371975 9 8 C4.75153925 7.52794881 2.73180712 5.11122478 0 2 C0 1.34 0 0.68 0 0 Z " fill="#1614E7" transform="translate(1591,382)"/>
<path d="M0 0 C2.5 2.3125 2.5 2.3125 5 5 C5 5.99 5 6.98 5 8 C0.125 4.375 0.125 4.375 -1 1 C-0.67 0.67 -0.34 0.34 0 0 Z " fill="#1818E9" transform="translate(1640,348)"/>
<path d="M0 0 C2.31 1.98 4.62 3.96 7 6 C6.34 6.66 5.68 7.32 5 8 C2.5 5.6875 2.5 5.6875 0 3 C0 2.01 0 1.02 0 0 Z " fill="#1A1BF1" transform="translate(1545,339)"/>
<path d="M0 0 C2 1 4 2 6 3 C5.67 3.99 5.34 4.98 5 6 C1.535 4.02 1.535 4.02 -2 2 C-1.34 1.34 -0.68 0.68 0 0 Z " fill="#FC211E" transform="translate(300,89)"/>
<path d="M0 0 C0.33 1.32 0.66 2.64 1 4 C-1.375 4.625 -1.375 4.625 -4 5 C-4.66 4.34 -5.32 3.68 -6 3 C-4.02 2.67 -2.04 2.34 0 2 C0 1.34 0 0.68 0 0 Z " fill="#2F30FC" transform="translate(969,703)"/>
<path d="M0 0 C1.31625194 2.63250388 0.74813658 3.80179056 0.0625 6.625 C-0.13214844 7.44226563 -0.32679687 8.25953125 -0.52734375 9.1015625 C-0.68332031 9.72804688 -0.83929687 10.35453125 -1 11 C-1.66 10.01 -2.32 9.02 -3 8 C-1.55555556 1.55555556 -1.55555556 1.55555556 0 0 Z " fill="#1C20FB" transform="translate(1444,693)"/>
<path d="M0 0 C0.99 0.33 1.98 0.66 3 1 C3 1.66 3 2.32 3 3 C3.66 3 4.32 3 5 3 C4.67 3.99 4.34 4.98 4 6 C3.01 6.33 2.02 6.66 1 7 C0.67 4.69 0.34 2.38 0 0 Z " fill="#0E10F5" transform="translate(1016,688)"/>
<path d="M0 0 C0.33 0 0.66 0 1 0 C1 2.31 1 4.62 1 7 C1.66 7 2.32 7 3 7 C2.67 8.32 2.34 9.64 2 11 C1.34 11 0.68 11 0 11 C0 7.37 0 3.74 0 0 Z " fill="#BDC3FD" transform="translate(1187,643)"/>
<path d="M0 0 C0.33 0 0.66 0 1 0 C1.26252625 4.33168317 0.29243536 7.8803623 -1 12 C-1.33 12 -1.66 12 -2 12 C-2.28571429 3.42857143 -2.28571429 3.42857143 0 0 Z " fill="#CBD2FD" transform="translate(927,626)"/>
<path d="M0 0 C0.33 0 0.66 0 1 0 C0.67 3.96 0.34 7.92 0 12 C-0.33 12 -0.66 12 -1 12 C-2.42857143 3.42857143 -2.42857143 3.42857143 0 0 Z " fill="#2127FA" transform="translate(1566,621)"/>
<path d="M0 0 C-6.75 4 -6.75 4 -9 4 C-8 1 -8 1 -6.1875 -0.25 C-3.66056586 -1.11637742 -2.47778006 -0.88492145 0 0 Z " fill="#1514E7" transform="translate(1742,387)"/>
<path d="M0 0 C2.31 1.98 4.62 3.96 7 6 C6.01 6.33 5.02 6.66 4 7 C2 5.1875 2 5.1875 0 3 C0 2.01 0 1.02 0 0 Z " fill="#1616EF" transform="translate(1562,355)"/>
<path d="M0 0 C0.99 0.33 1.98 0.66 3 1 C1.02 3.31 -0.96 5.62 -3 8 C-3.33 7.01 -3.66 6.02 -4 5 C-2.0625 2.3125 -2.0625 2.3125 0 0 Z " fill="#1114EB" transform="translate(1646,266)"/>
<path d="M0 0 C0.99 0.33 1.98 0.66 3 1 C0.69 2.65 -1.62 4.3 -4 6 C-4 5.01 -4 4.02 -4 3 C-2.1875 1.25 -2.1875 1.25 0 0 Z " fill="#1316EA" transform="translate(1655,258)"/>
<path d="M0 0 C0.99 0.33 1.98 0.66 3 1 C1.37660195 2.70884005 -0.29319053 4.37446717 -2 6 C-2.66 6 -3.32 6 -4 6 C-4 5.01 -4 4.02 -4 3 C-2.1875 1.25 -2.1875 1.25 0 0 Z " fill="#1C1DEB" transform="translate(1720,110)"/>
<path d="M0 0 C0.33 0.66 0.66 1.32 1 2 C2.98 2 4.96 2 7 2 C6.01 2.33 5.02 2.66 4 3 C4 3.66 4 4.32 4 5 C2.68 5 1.36 5 0 5 C0 3.35 0 1.7 0 0 Z " fill="#2423F9" transform="translate(293,708)"/>
<path d="M0 0 C0.99 1.485 0.99 1.485 2 3 C4.56282742 3.72965366 4.56282742 3.72965366 7 4 C4.35261084 5.4606285 3.10551666 6 0 6 C0 4.02 0 2.04 0 0 Z " fill="#2F31FB" transform="translate(1390,705)"/>
<path d="M0 0 C3.0625 0.1875 3.0625 0.1875 5.0625 2.1875 C1.6875 2.8125 1.6875 2.8125 -1.9375 3.1875 C-2.5975 2.5275 -3.2575 1.8675 -3.9375 1.1875 C-2.9375 0.1875 -2.9375 0.1875 0 0 Z " fill="#1214F3" transform="translate(1090.9375,708.8125)"/>
<path d="M0 0 C1.04293785 3.38954801 1.30754089 6.46327974 1 10 C0.01 10.66 -0.98 11.32 -2 12 C-1.85831863 10.56208484 -1.71148957 9.1246763 -1.5625 7.6875 C-1.48128906 6.88699219 -1.40007813 6.08648438 -1.31640625 5.26171875 C-1 3 -1 3 0 0 Z " fill="#AEB2FD" transform="translate(596,671)"/>
<path d="M0 0 C1.35432675 1.31200404 2.68733482 2.64631404 4 4 C4 4.33 4 4.66 4 5 C2.02 5.33 0.04 5.66 -2 6 C-1.34 4.02 -0.68 2.04 0 0 Z " fill="#1D20FC" transform="translate(809,676)"/>
<path d="M0 0 C2 3 2 3 1.625 5.6875 C1.41875 6.450625 1.2125 7.21375 1 8 C0.34 8 -0.32 8 -1 8 C-0.67 5.36 -0.34 2.72 0 0 Z " fill="#1B1CF2" transform="translate(1018,658)"/>
<path d="M0 0 C0.33 0 0.66 0 1 0 C1 2.31 1 4.62 1 7 C-0.65 7.33 -2.3 7.66 -4 8 C-4.33 7.01 -4.66 6.02 -5 5 C-3.68 5 -2.36 5 -1 5 C-0.67 3.35 -0.34 1.7 0 0 Z " fill="#363FF9" transform="translate(1652,618)"/>
<path d="M0 0 C2.64 0 5.28 0 8 0 C8 0.33 8 0.66 8 1 C5.69 1 3.38 1 1 1 C1.33 1.99 1.66 2.98 2 4 C1.01 4.99 0.02 5.98 -1 7 C-0.67 4.69 -0.34 2.38 0 0 Z " fill="#313CF9" transform="translate(592,597)"/>
<path d="M0 0 C1.98 0 3.96 0 6 0 C6.6875 1.8125 6.6875 1.8125 7 4 C5.5625 5.75 5.5625 5.75 4 7 C4.33 5.02 4.66 3.04 5 1 C3.35 1 1.7 1 0 1 C0 0.67 0 0.34 0 0 Z " fill="#C5C1FD" transform="translate(1426,593)"/>
<path d="M0 0 C2.31 1.65 4.62 3.3 7 5 C6.34 5.66 5.68 6.32 5 7 C2.5 5.1875 2.5 5.1875 0 3 C0 2.01 0 1.02 0 0 Z " fill="#0D0DE4" transform="translate(1648,358)"/>
<path d="M0 0 C0.639375 0.2475 1.27875 0.495 1.9375 0.75 C2.2675 1.74 2.5975 2.73 2.9375 3.75 C0 3.375 0 3.375 -3.0625 2.75 C-3.3925 2.09 -3.7225 1.43 -4.0625 0.75 C-2.0625 -0.25 -2.0625 -0.25 0 0 Z " fill="#312FE0" transform="translate(1714.0625,351.25)"/>
<path d="M0 0 C0.66 0.33 1.32 0.66 2 1 C0.35 2.98 -1.3 4.96 -3 7 C-3.99 6.67 -4.98 6.34 -6 6 C-4.02 4.02 -2.04 2.04 0 0 Z " fill="#D8D9FC" transform="translate(1519,287)"/>
<path d="M0 0 C0.99 0.33 1.98 0.66 3 1 C-2.75 6 -2.75 6 -5 6 C-5 5.34 -5 4.68 -5 4 C-4.34 4 -3.68 4 -3 4 C-3 3.34 -3 2.68 -3 2 C-2.01 1.34 -1.02 0.68 0 0 Z " fill="#1010E9" transform="translate(1552,256)"/>
<path d="M0 0 C0.556875 0.226875 1.11375 0.45375 1.6875 0.6875 C-0.97809313 2.46456209 -3.3405615 3.56298273 -6.3125 4.6875 C-6.6425 4.0275 -6.9725 3.3675 -7.3125 2.6875 C-2.88173077 -0.38942308 -2.88173077 -0.38942308 0 0 Z " fill="#1012E8" transform="translate(1670.3125,250.3125)"/>
<path d="M0 0 C0.66 0.66 1.32 1.32 2 2 C0.68 3.32 -0.64 4.64 -2 6 C-2.99 5.67 -3.98 5.34 -5 5 C-3.35 3.35 -1.7 1.7 0 0 Z " fill="#1716EC" transform="translate(1632,186)"/>
</svg>
